<?xml version="1.0" encoding="UTF-8"?>
<svg version="1.1" xmlns="http://www.w3.org/2000/svg" width="1024" height="1024">
<path d="M0 0 C13.51262978 -0.09314057 27.02263122 -0.06379386 40.53521729 0.02307129 C44.08611522 0.04385075 47.63698955 0.05988847 51.18791676 0.07424736 C59.50314241 0.10812118 67.81803603 0.15917139 76.133008 0.23301506 C80.27765846 0.26967085 84.42213673 0.30084152 88.56692505 0.31634521 C113.38476458 0.41791669 136.64003976 2.52866739 160.43603516 10.04589844 C161.23074219 10.29178711 162.02544922 10.53767578 162.84423828 10.79101562 C175.83881712 14.86524038 187.60402803 20.33305673 199.43603516 27.04589844 C200.06074707 27.39749023 200.68545898 27.74908203 201.32910156 28.11132812 C204.73296759 30.03389087 208.09838966 32.01074874 211.43603516 34.04589844 C212.11537109 34.45710938 212.79470703 34.86832031 213.49462891 35.29199219 C215.18603516 36.35839844 215.18603516 36.35839844 217.43603516 38.04589844 C217.43603516 38.70589844 217.43603516 39.36589844 217.43603516 40.04589844 C218.14115234 40.28308594 218.84626953 40.52027344 219.57275391 40.76464844 C222.93890384 42.27092017 225.40586688 44.20174361 228.24853516 46.54589844 C229.22435547 47.33996094 230.20017578 48.13402344 231.20556641 48.95214844 C231.94162109 49.64308594 232.67767578 50.33402344 233.43603516 51.04589844 C233.43603516 51.70589844 233.43603516 52.36589844 233.43603516 53.04589844 C234.00837891 53.29339844 234.58072266 53.54089844 235.17041016 53.79589844 C237.78614127 55.23906043 239.58376972 56.92806066 241.68603516 59.04589844 C242.74564453 60.09777344 242.74564453 60.09777344 243.82666016 61.17089844 C245.43603516 63.04589844 245.43603516 63.04589844 245.43603516 65.04589844 C246.75603516 65.70589844 248.07603516 66.36589844 249.43603516 67.04589844 C249.43603516 67.70589844 249.43603516 68.36589844 249.43603516 69.04589844 C250.42603516 69.37589844 251.41603516 69.70589844 252.43603516 70.04589844 C253.76708984 71.45361328 253.76708984 71.45361328 255.10791016 73.25683594 C255.60411865 73.9193335 256.10032715 74.58183105 256.61157227 75.2644043 C257.13114502 75.97604736 257.65071777 76.68769043 258.18603516 77.42089844 C258.72172119 78.14607666 259.25740723 78.87125488 259.80932617 79.6184082 C265.50601412 87.39570055 270.68134811 95.40691821 275.26025391 103.89355469 C276.02476429 105.29304047 276.81789742 106.67739235 277.64306641 108.04199219 C281.62507711 114.72924191 284.14628448 121.88460929 286.76025391 129.18310547 C287.32810498 130.74838859 287.9255461 132.30289261 288.52978516 133.85449219 C306.75376607 180.95760415 303.31340804 236.70657409 283.47509766 282.66308594 C276.16341992 299.00990831 266.54603254 314.02400658 255.43603516 328.04589844 C254.73478516 328.97660156 254.03353516 329.90730469 253.31103516 330.86621094 C252.69228516 331.58550781 252.07353516 332.30480469 251.43603516 333.04589844 C250.77603516 333.04589844 250.11603516 333.04589844 249.43603516 333.04589844 C249.39478516 333.60277344 249.35353516 334.15964844 249.31103516 334.73339844 C248.21913971 337.61912212 246.45003009 338.89121098 244.05322266 340.74902344 C242.18898285 342.19045424 242.18898285 342.19045424 239.81103516 344.73339844 C237.43603516 347.04589844 237.43603516 347.04589844 235.24853516 348.10839844 C233.28471179 348.8784895 233.28471179 348.8784895 232.69775391 350.80761719 C230.92803575 353.94708624 228.29964697 355.7224814 225.43603516 357.79589844 C224.88947266 358.20710938 224.34291016 358.61832031 223.77978516 359.04199219 C219.70804512 362.04589844 219.70804512 362.04589844 217.43603516 362.04589844 C217.43603516 362.70589844 217.43603516 363.36589844 217.43603516 364.04589844 C215.55232511 365.37557611 213.60007584 366.60859344 211.62353516 367.79589844 C211.03548096 368.15006836 210.44742676 368.50423828 209.84155273 368.86914062 C204.45876982 372.08676965 198.98795823 375.12982528 193.43603516 378.04589844 C192.76314453 378.40296875 192.09025391 378.76003906 191.39697266 379.12792969 C152.24385564 399.34898395 110.14210597 400.36807619 67.07910156 400.66772461 C65.79551254 400.67965851 64.51192352 400.69159241 63.18943787 400.70388794 C60.76800004 400.72551365 58.34647281 400.73920319 55.92494202 400.74337769 C47.23205377 400.82484433 39.02667353 401.68355522 30.93603516 405.04589844 C30.12134766 405.37589844 29.30666016 405.70589844 28.46728516 406.04589844 C26.2799271 406.98728802 26.2799271 406.98728802 24.43603516 409.04589844 C23.44603516 409.04589844 22.45603516 409.04589844 21.43603516 409.04589844 C21.43603516 409.70589844 21.43603516 410.36589844 21.43603516 411.04589844 C20.61103516 411.54089844 19.78603516 412.03589844 18.93603516 412.54589844 C14.71058401 415.16165391 12.10410919 419.06468288 9.17041016 422.99902344 C8.59806641 423.67449219 8.02572266 424.34996094 7.43603516 425.04589844 C6.77603516 425.04589844 6.11603516 425.04589844 5.43603516 425.04589844 C5.34966797 425.57570313 5.26330078 426.10550781 5.17431641 426.65136719 C4.16677274 429.91922045 2.45150439 432.47230972 0.62353516 435.35839844 C-2.20960157 439.86801853 -4.96815191 444.39506694 -7.56396484 449.04589844 C-8.22396484 449.04589844 -8.88396484 449.04589844 -9.56396484 449.04589844 C-9.87333984 449.99464844 -10.18271484 450.94339844 -10.50146484 451.92089844 C-11.56396484 455.04589844 -11.56396484 455.04589844 -12.56396484 457.04589844 C-13.22396484 457.04589844 -13.88396484 457.04589844 -14.56396484 457.04589844 C-14.73375854 457.90501831 -14.73375854 457.90501831 -14.90698242 458.78149414 C-15.63432125 461.28839405 -16.67007209 463.07980642 -18.07568359 465.27636719 C-18.58679688 466.08009766 -19.09791016 466.88382813 -19.62451172 467.71191406 C-20.42985352 468.96004883 -20.42985352 468.96004883 -21.25146484 470.23339844 C-21.76902344 471.04615234 -22.28658203 471.85890625 -22.81982422 472.69628906 C-25.42093734 476.76801907 -28.06761001 480.80309598 -30.77099609 484.80761719 C-32.91449823 488.00795816 -34.81870844 491.23232779 -36.56396484 494.67089844 C-39.08837288 499.40666128 -41.85818167 503.16775326 -45.56396484 507.04589844 C-45.89396484 507.04589844 -46.22396484 507.04589844 -46.56396484 507.04589844 C-46.65769997 489.55552886 -46.72808621 472.06523847 -46.77121353 454.57467461 C-46.79177686 446.4522038 -46.81977714 438.3298897 -46.86572266 430.20751953 C-46.90578247 423.12221829 -46.93144285 416.03703063 -46.94031882 408.95161927 C-46.94550145 405.20519124 -46.9575497 401.45908795 -46.98688507 397.71276474 C-47.01435826 394.17505827 -47.02234679 390.63780532 -47.01639557 387.10000229 C-47.01799344 385.20611482 -47.03934728 383.31227493 -47.06164551 381.41851807 C-46.96820724 361.6460575 -38.69615225 345.14581863 -24.86865234 331.35839844 C-18.10244141 325.04589844 -18.10244141 325.04589844 -14.56396484 325.04589844 C-14.56396484 324.38589844 -14.56396484 323.72589844 -14.56396484 323.04589844 C-0.14423794 314.85287179 13.81218504 312.44966526 30.16636848 312.56004333 C32.86690384 312.57769226 35.56640411 312.56959119 38.26695251 312.55578613 C44.97356159 312.52651573 51.67995708 312.53920031 58.38659668 312.55096436 C94.20212384 313.75925915 94.20212384 313.75925915 128.43603516 305.04589844 C129.80431264 304.6076601 131.17872889 304.18764515 132.56103516 303.79589844 C139.90062743 301.42503358 146.67395256 297.38391587 153.20166016 293.32714844 C155.43603516 292.04589844 155.43603516 292.04589844 157.43603516 292.04589844 C157.43603516 291.38589844 157.43603516 290.72589844 157.43603516 290.04589844 C158.75603516 289.71589844 160.07603516 289.38589844 161.43603516 289.04589844 C161.43603516 288.38589844 161.43603516 287.72589844 161.43603516 287.04589844 C162.89391931 285.82701169 164.40480376 284.67126127 165.93603516 283.54589844 C170.73280678 279.83930218 174.26298308 275.82234634 177.84228516 270.95214844 C178.36822266 270.32308594 178.89416016 269.69402344 179.43603516 269.04589844 C180.09603516 269.04589844 180.75603516 269.04589844 181.43603516 269.04589844 C181.67580078 268.53542969 181.91556641 268.02496094 182.16259766 267.49902344 C183.89047554 264.1704734 185.8602769 260.99644169 187.81103516 257.79589844 C202.82185517 232.87311517 207.5611361 204.70931747 200.99707031 176.14941406 C199.4119205 170.20613694 197.00522575 164.62490598 194.43603516 159.04589844 C194.06091797 158.2221875 193.68580078 157.39847656 193.29931641 156.54980469 C191.82108073 153.45894827 190.16235207 150.63928356 188.24853516 147.79589844 C186.66845772 145.39853957 185.86574774 143.83903023 185.43603516 141.04589844 C184.77603516 141.04589844 184.11603516 141.04589844 183.43603516 141.04589844 C182.16681903 139.4251154 180.97100894 137.74657714 179.81103516 136.04589844 C173.00150999 126.50280045 164.98613152 119.79430837 155.43603516 113.04589844 C154.54916016 112.41425781 153.66228516 111.78261719 152.74853516 111.13183594 C146.40120053 106.84360689 139.85320914 103.98389762 132.72119141 101.30761719 C129.43603516 100.04589844 129.43603516 100.04589844 127.23681641 98.94042969 C125.34641846 98.00138168 123.61667398 97.50821078 121.56103516 97.04589844 C119.19356584 96.50914426 116.97715713 95.88487884 114.68139648 95.07929993 C100.00045433 90.4045331 83.5661773 91.68084535 68.37353516 91.59667969 C65.65078413 91.57631565 62.92805514 91.55345226 60.20532227 91.5308075 C54.52021416 91.48500922 48.83509433 91.44654312 43.14990234 91.4128418 C36.61793895 91.37405545 30.08612205 91.32474058 23.55427837 91.26951152 C17.21811546 91.21608925 10.88192125 91.16910572 4.54568481 91.12532616 C1.87303423 91.10681797 -0.79956971 91.08607253 -3.47219849 91.06423378 C-33.42804564 89.55160463 -33.42804564 89.55160463 -60.56396484 100.04589844 C-61.57458984 100.74714844 -62.58521484 101.44839844 -63.62646484 102.17089844 C-73.30437805 110.74125755 -76.78019954 123.5122596 -77.92395282 135.9654485 C-78.06129625 140.03086238 -78.07782453 144.07684922 -78.04257202 148.14344788 C-78.04415526 149.69749401 -78.04751629 151.25153914 -78.05247462 152.80557817 C-78.06101501 157.02761555 -78.04506253 161.24924288 -78.02481604 165.47122681 C-78.00739689 170.04319033 -78.01344633 174.61513144 -78.01676941 179.18711853 C-78.01961822 187.09571674 -78.0086258 195.00419539 -77.98868942 202.91276741 C-77.96037311 214.36331415 -77.95998604 225.81373896 -77.96737249 237.26431232 C-77.97917865 255.86738143 -77.97763897 274.47041935 -77.96337891 293.07348633 C-77.96253365 294.1849748 -77.9616884 295.29646327 -77.96081753 296.44163322 C-77.9510895 308.84417046 -77.9381179 321.24670096 -77.92156982 333.64923096 C-77.91561153 338.1490478 -77.90968388 342.64886469 -77.90380859 347.14868164 C-77.90235228 348.25910735 -77.90089596 349.36953307 -77.89939551 350.51360805 C-77.87572723 369.05206507 -77.87533837 387.5904422 -77.89308226 406.12890524 C-77.90301492 417.54630473 -77.89300814 428.96334439 -77.85697545 440.38069307 C-77.83374331 448.20566015 -77.83209614 456.03044412 -77.84717916 463.85543043 C-77.85514569 468.36382808 -77.85344443 472.87166509 -77.82518959 477.37999344 C-77.79944283 481.51615422 -77.8018797 485.65135493 -77.82565279 489.78751867 C-77.82938204 491.27452206 -77.82319112 492.76159507 -77.80542605 494.24849702 C-77.58295184 514.10099257 -87.04219655 530.80810983 -100.56396484 545.04589844 C-101.22396484 545.04589844 -101.88396484 545.04589844 -102.56396484 545.04589844 C-102.82862549 545.64950195 -103.09328613 546.25310547 -103.3659668 546.875 C-104.62093009 549.14912545 -105.6855969 550.21798812 -107.73193359 551.78027344 C-108.3703418 552.26818359 -109.00875 552.75609375 -109.66650391 553.25878906 C-110.35454102 553.76603516 -111.04257812 554.27328125 -111.75146484 554.79589844 C-112.46399414 555.32376953 -113.17652344 555.85164062 -113.91064453 556.39550781 C-130.24415781 568.23640353 -147.11646174 575.05345656 -167.56396484 574.04589844 C-169.24576097 572.36410231 -168.68930939 570.29220666 -168.69882753 568.04689771 C-168.69677222 567.3233743 -168.6947169 566.5998509 -168.6925993 565.85440254 C-168.69435233 565.08904263 -168.69610537 564.32368272 -168.69791153 563.53513008 C-168.70261107 560.93739383 -168.70009592 558.33971259 -168.69767761 555.74197388 C-168.69954365 553.87374255 -168.70184351 552.00551161 -168.70454293 550.1372813 C-168.71069395 544.97710024 -168.71052346 539.81693529 -168.70934856 534.65675139 C-168.70914536 529.10079555 -168.71465588 523.54484501 -168.71940613 517.9888916 C-168.72773347 507.08925371 -168.73046199 496.18962123 -168.73101851 485.28998043 C-168.73149309 476.42527217 -168.73354497 467.5605657 -168.73671913 458.695858 C-168.74409857 437.65828778 -168.75024324 416.62071866 -168.74972057 395.58314705 C-168.74970499 394.90960794 -168.74968942 394.23606883 -168.74967337 393.54211944 C-168.74959026 390.12827508 -168.74949122 386.71443072 -168.74938866 383.30058636 C-168.74936871 382.62258096 -168.74934877 381.94457556 -168.74932822 381.24602454 C-168.74928778 379.87492515 -168.74924598 378.50382577 -168.74920283 377.13272638 C-168.74859114 355.83798912 -168.75607488 334.54326784 -168.76977539 313.24853516 C-168.78516213 289.32300109 -168.79372723 265.39747742 -168.79281217 241.47193706 C-168.79248059 228.80579903 -168.79520989 216.13967898 -168.80599022 203.47354507 C-168.81511852 192.67885095 -168.81725172 181.88418294 -168.8104808 171.08948661 C-168.80722611 165.58648348 -168.80712049 160.08353038 -168.81583405 154.58053207 C-168.82374775 149.53035993 -168.82221832 144.48027707 -168.81354991 139.43010698 C-168.81202546 137.61487101 -168.81379066 135.79962821 -168.81940999 133.98440029 C-168.84564037 124.90034458 -168.60767722 115.92317565 -167.69304371 106.8801403 C-167.6181469 106.12413668 -167.54325009 105.36813306 -167.46608369 104.58922023 C-166.0735351 92.19335181 -161.74172057 80.33030958 -156.56396484 69.04589844 C-156.24814453 68.34464844 -155.93232422 67.64339844 -155.60693359 66.92089844 C-148.95421806 52.87942225 -138.83439932 40.86091903 -126.93896484 30.92089844 C-125.18914585 29.45611783 -123.54575494 28.02661209 -121.97802734 26.36621094 C-120.56396484 25.04589844 -120.56396484 25.04589844 -118.56396484 25.04589844 C-118.56396484 24.38589844 -118.56396484 23.72589844 -118.56396484 23.04589844 C-95.44279302 4.09224648 -67.37434311 0.44724147 -38.68896484 0.29589844 C-35.99760427 0.27059662 -33.30630475 0.24020089 -30.61499023 0.21044922 C-23.84834795 0.13985048 -17.08180214 0.09765375 -10.31488037 0.06481934 C-6.87654101 0.04747518 -3.43829128 0.02494337 0 0 Z " fill="#A224EA" transform="translate(454.56396484375,222.9541015625)"/>
<path d="M0 0 C1.21884384 -0.0033284 2.43768768 -0.0066568 3.69346619 -0.01008606 C6.26284407 -0.01513537 8.83222848 -0.017495 11.40161133 -0.01733398 C15.32969922 -0.01952559 19.25750842 -0.03771683 23.18554688 -0.05664062 C25.68619696 -0.05957393 28.18684837 -0.06155915 30.6875 -0.0625 C31.85950455 -0.06968552 33.03150909 -0.07687103 34.23902893 -0.08427429 C47.06102457 -0.04835043 47.06102457 -0.04835043 50.27734375 3.16796875 C51.5711041 9.68502799 51.45634651 16.23248378 51.48046875 22.85546875 C51.48616882 24.07194092 51.4918689 25.28841309 51.4977417 26.54174805 C51.50716221 29.10692482 51.51371392 31.67211353 51.51757812 34.23730469 C51.52731031 38.15451069 51.55837333 42.0711976 51.58984375 45.98828125 C51.59637199 48.48567398 51.60162316 50.98307045 51.60546875 53.48046875 C51.61781555 54.64731201 51.63016235 55.81415527 51.6428833 57.01635742 C51.62204718 64.63986134 50.95785307 71.48745943 45.27734375 77.16796875 C41.22913091 78.7748133 37.79988154 79.42224308 33.45898438 79.44262695 C32.33762085 79.45215897 31.21625732 79.46169098 30.06091309 79.47151184 C28.86389771 79.47060043 27.66688232 79.46968903 26.43359375 79.46875 C24.5699115 79.47517769 24.5699115 79.47517769 22.6685791 79.48173523 C19.37634101 79.48893328 16.08428664 79.48586415 12.79205322 79.48016357 C10.77906063 79.48046849 8.76636169 79.4905143 6.75341797 79.50415039 C2.87583645 79.52864989 -1.00125698 79.53280581 -4.87890625 79.53125 C-6.67442932 79.54506462 -6.67442932 79.54506462 -8.50622559 79.55915833 C-19.6017168 79.49752667 -19.6017168 79.49752667 -23.72265625 76.16796875 C-28.52286634 70.09156445 -28.29355739 63.27893723 -28.21875 55.85546875 C-28.22020523 54.68717529 -28.22166046 53.51888184 -28.22315979 52.31518555 C-28.22150575 49.85430396 -28.21000034 47.3934115 -28.18920898 44.93261719 C-28.16024824 41.17988853 -28.16861351 37.42857379 -28.18164062 33.67578125 C-28.1754026 31.27733693 -28.16701117 28.87889704 -28.15625 26.48046875 C-28.15918564 25.36567139 -28.16212128 24.25087402 -28.16514587 23.10229492 C-28.07249829 15.39860637 -27.28515913 9.51345863 -22.47265625 3.23046875 C-16.37240912 -1.3447166 -7.3033988 0.00694661 0 0 Z " fill="#611CCF" transform="translate(540.72265625,702.83203125)"/>
<path d="M0 0 C0.73148758 -0.00191345 1.46297516 -0.0038269 2.21662903 -0.00579834 C3.74850818 -0.00714845 5.28039924 -0.00353487 6.81225586 0.00488281 C9.14918683 0.01564644 11.48535739 0.00492403 13.82226562 -0.0078125 C15.3190121 -0.0064916 16.8157581 -0.00393066 18.3125 0 C19.00530563 -0.00404846 19.69811127 -0.00809692 20.41191101 -0.01226807 C25.80861836 0.03971397 29.19964287 0.67687205 33.23413086 4.32421875 C35.61131243 8.38264068 35.55096943 11.70164285 35.5234375 16.328125 C35.53273537 17.63148804 35.53273537 17.63148804 35.54222107 18.96118164 C35.549307 20.79344566 35.54616664 22.62577424 35.53344727 24.45800781 C35.51957367 27.2570666 35.55367645 30.05278546 35.59179688 32.8515625 C35.59274808 34.63541748 35.59088919 36.41927664 35.5859375 38.203125 C35.59919571 39.03658447 35.61245392 39.87004395 35.62611389 40.72875977 C35.55576206 45.13133185 35.38389433 46.74791939 32.48022461 50.26953125 C31.6475708 50.92824219 30.81491699 51.58695313 29.95703125 52.265625 C29.62703125 52.595625 29.29703125 52.925625 28.95703125 53.265625 C25.91299915 53.40414642 22.89334414 53.47884835 19.84765625 53.50390625 C18.92869568 53.511978 18.00973511 53.52004974 17.06292725 53.52836609 C15.11260882 53.54222606 13.16226594 53.55293962 11.21191406 53.56079102 C8.2332527 53.57797374 5.25570965 53.62183867 2.27734375 53.66601562 C0.38412276 53.67614478 -1.50910768 53.68466019 -3.40234375 53.69140625 C-4.292099 53.70891434 -5.18185425 53.72642242 -6.09857178 53.74446106 C-10.19360549 53.73015223 -12.48383545 53.5923848 -16.08300781 51.48901367 C-19.82631001 47.2425945 -19.21500826 42.69426725 -19.24609375 37.24609375 C-19.25464386 36.08089958 -19.25464386 36.08089958 -19.2633667 34.89216614 C-19.27279623 33.25063429 -19.27934254 31.60908369 -19.28320312 29.9675293 C-19.29289485 27.47215262 -19.32393094 24.97760499 -19.35546875 22.48242188 C-19.36200106 20.88281736 -19.36725064 19.28320699 -19.37109375 17.68359375 C-19.38344055 16.94481491 -19.39578735 16.20603607 -19.4085083 15.44487 C-19.38688224 10.34797752 -18.82113654 6.61482131 -16.04296875 2.265625 C-10.74457008 0.22251361 -5.65894631 -0.0333609 0 0 Z " fill="#5F1CD3" transform="translate(621.04296875,646.734375)"/>
<path d="M0 0 C1.051875 0.04415039 2.10375 0.08830078 3.1875 0.13378906 C18.9822274 0.81515128 18.9822274 0.81515128 26.8125 3.75 C31.23441755 5.3920914 35.68619856 6.84155896 40.1875 8.25 C56.90178389 13.67398267 70.48244476 22.96144278 84 34 C84.90105469 34.69609375 84.90105469 34.69609375 85.8203125 35.40625 C89.40750956 38.21832407 91.51353945 41.21307021 94 45 C96.26711115 48.05293824 98.57189218 51.07480645 100.87890625 54.09765625 C106 61.10497238 106 61.10497238 106 64 C102.15521125 62.54163185 100.8177085 60.63541701 99 57 C98.3125 54.6875 98.3125 54.6875 98 53 C97.34 53 96.68 53 96 53 C94.73078387 51.37921697 93.53497379 49.7006787 92.375 48 C85.56547484 38.45690201 77.55009636 31.74840993 68 25 C67.113125 24.36835938 66.22625 23.73671875 65.3125 23.0859375 C58.96516538 18.79770845 52.41717398 15.93799918 45.28515625 13.26171875 C42 12 42 12 39.80078125 10.89453125 C37.9103833 9.95548325 36.18063882 9.46231235 34.125 9 C31.75753069 8.46324582 29.54112197 7.8389804 27.24536133 7.03340149 C12.56441917 2.35863466 -3.86985785 3.63494691 -19.0625 3.55078125 C-21.78525103 3.53041721 -24.50798001 3.50755382 -27.23071289 3.48490906 C-32.915821 3.43911078 -38.60094083 3.40064468 -44.28613281 3.36694336 C-50.81809621 3.32815701 -57.3499131 3.27884214 -63.88175678 3.22361308 C-70.2179197 3.17019081 -76.55411391 3.12320728 -82.89035034 3.07942772 C-85.56300093 3.06091954 -88.23560486 3.04017409 -90.90823364 3.01833534 C-120.8640808 1.50570619 -120.8640808 1.50570619 -148 12 C-149.5159375 13.051875 -149.5159375 13.051875 -151.0625 14.125 C-160.35907075 22.35765802 -164.18274892 34.57795556 -165.22717571 46.61909676 C-165.60749306 53.84420067 -165.56333537 61.07379305 -165.54589844 68.30664062 C-165.5546483 70.72276978 -165.56513896 73.13889316 -165.57722473 75.55500793 C-165.60206728 81.39493552 -165.60897678 87.23467865 -165.6076645 93.07465434 C-165.60712677 99.87921248 -165.62917943 106.68364367 -165.65247145 113.48815519 C-165.69340845 125.61953587 -165.71682857 137.75088304 -165.72900391 149.88232422 C-165.74085834 161.65611993 -165.76110484 173.42985271 -165.79248047 185.20361328 C-165.79538462 186.29502879 -165.79538462 186.29502879 -165.79834744 187.4084931 C-165.80811304 191.05926078 -165.81804196 194.710028 -165.82805204 198.36079502 C-165.9106828 228.57383515 -165.96449329 258.78686555 -166 289 C-166.33 289 -166.66 289 -167 289 C-168.18575327 231.08801035 -169.2084196 173.18992279 -169.18847656 115.26430893 C-169.18750744 111.77675982 -169.18846551 108.28921522 -169.18969727 104.80166626 C-169.19599928 59.16739805 -169.19599928 59.16739805 -168 38 C-167.34 38 -166.68 38 -166 38 C-166.226875 37.319375 -166.45375 36.63875 -166.6875 35.9375 C-167.12290176 31.84472345 -165.79836785 29.66867041 -164 26 C-163.34 26 -162.68 26 -162 26 C-161.896875 25.46375 -161.79375 24.9275 -161.6875 24.375 C-160.02658449 18.63729188 -157.06859115 14.26705901 -153 10 C-150.75 9.3125 -150.75 9.3125 -149 9 C-148.67 8.01 -148.34 7.02 -148 6 C-146.35 6 -144.7 6 -143 6 C-143 5.34 -143 4.68 -143 4 C-141.37239583 3.54427083 -139.74479167 3.08854167 -138.1171875 2.6328125 C-135.89534821 2.00176243 -135.89534821 2.00176243 -133.39599609 0.97045898 C-129.38076421 -0.17695631 -125.67934266 -0.23233251 -121.546875 -0.16015625 C-120.71508728 -0.15463745 -119.88329956 -0.14911865 -119.02630615 -0.14343262 C-117.21843251 -0.1310576 -115.41058408 -0.11442644 -113.6027832 -0.09402466 C-108.65717705 -0.03937328 -103.71148174 -0.01836163 -98.765625 0 C-97.72704346 0.00414413 -96.68846191 0.00828827 -95.6184082 0.01255798 C-84.9662524 0.03586697 -74.3245548 -0.21813212 -63.6763916 -0.48391724 C-42.40654974 -1.01012533 -21.2553679 -0.93807956 0 0 Z " fill="#FC3CFE" transform="translate(542,311)"/>
<path d="M0 0 C0.33 0 0.66 0 1 0 C1.85226576 54.55375007 -8.4284474 101.36735498 -43 145 C-43.70125 145.93070313 -44.4025 146.86140625 -45.125 147.8203125 C-46.053125 148.89925781 -46.053125 148.89925781 -47 150 C-47.66 150 -48.32 150 -49 150 C-49.04125 150.556875 -49.0825 151.11375 -49.125 151.6875 C-50.21689545 154.57322369 -51.98600507 155.84531254 -54.3828125 157.703125 C-56.2470523 159.1445558 -56.2470523 159.1445558 -58.625 161.6875 C-61 164 -61 164 -63.1875 165.0625 C-65.15132336 165.83259106 -65.15132336 165.83259106 -65.73828125 167.76171875 C-67.50799941 170.9011878 -70.13638819 172.67658296 -73 174.75 C-73.5465625 175.16121094 -74.093125 175.57242188 -74.65625 175.99609375 C-78.72799003 179 -78.72799003 179 -81 179 C-81 179.66 -81 180.32 -81 181 C-82.88371004 182.32967768 -84.83595931 183.562695 -86.8125 184.75 C-87.4005542 185.10416992 -87.9886084 185.45833984 -88.59448242 185.82324219 C-93.97726533 189.04087121 -99.44807693 192.08392684 -105 195 C-105.67289063 195.35707031 -106.34578125 195.71414063 -107.0390625 196.08203125 C-146.19217952 216.30308551 -188.29392919 217.32217776 -231.35693359 217.62182617 C-232.64052261 217.63376007 -233.92411163 217.64569397 -235.24659729 217.6579895 C-237.66803512 217.67961521 -240.08956234 217.69330476 -242.51109314 217.69747925 C-251.20398139 217.77894589 -259.40936163 218.63765678 -267.5 222 C-268.3146875 222.33 -269.129375 222.66 -269.96875 223 C-272.15610805 223.94138959 -272.15610805 223.94138959 -274 226 C-274.99 226 -275.98 226 -277 226 C-277 226.66 -277 227.32 -277 228 C-277.825 228.495 -278.65 228.99 -279.5 229.5 C-283.72545115 232.11575547 -286.33192597 236.01878444 -289.265625 239.953125 C-290.12414062 240.96632813 -290.12414062 240.96632813 -291 242 C-291.66 242 -292.32 242 -293 242 C-293.0825 242.556875 -293.165 243.11375 -293.25 243.6875 C-294.22610013 246.69714206 -295.95188814 248.62154752 -298 251 C-298.80967438 248.08517222 -299.21845993 246.53886783 -298.0625 243.6875 C-297.711875 243.130625 -297.36125 242.57375 -297 242 C-296.34 242 -295.68 242 -295 242 C-294.5978125 241.0409375 -294.5978125 241.0409375 -294.1875 240.0625 C-293 238 -293 238 -290 237 C-289.87625 236.401875 -289.7525 235.80375 -289.625 235.1875 C-288.70328488 231.96149709 -286.70371991 230.84644286 -284 229 C-283.34 229 -282.68 229 -282 229 C-281.67 228.01 -281.34 227.02 -281 226 C-280.01 225.67 -279.02 225.34 -278 225 C-275.35703248 222.66796984 -274.12775574 221.38326722 -273 218 C-272.34 218 -271.68 218 -271 218 C-271 218.66 -271 219.32 -271 220 C-269.515 219.01 -269.515 219.01 -268 218 C-264.8125 217.875 -264.8125 217.875 -262 218 C-262 217.34 -262 216.68 -262 216 C-252.64519946 213.07662483 -243.7845953 212.87405831 -234.02112007 212.95540047 C-231.83787993 212.97298672 -229.6547149 212.98315136 -227.47142029 212.99131775 C-221.26920485 213.01559952 -215.06709129 213.05123842 -208.86499023 213.09594727 C-205.05619403 213.12288835 -201.24745543 213.13982587 -197.43858147 213.15081596 C-195.99742435 213.15697744 -194.55627778 213.16692093 -193.11517525 213.18089485 C-185.39840564 213.25507712 -178.46137065 213.01475974 -171 211 C-169.0046372 210.78481382 -167.00384246 210.61132458 -165 210.5 C-157.77154373 209.97579897 -150.75769615 208.70307846 -144 206 C-143.67 205.34 -143.34 204.68 -143 204 C-141.35 204.33 -139.7 204.66 -138 205 C-137.67 204.01 -137.34 203.02 -137 202 C-136.01 202.33 -135.02 202.66 -134 203 C-133.01 202.67 -132.02 202.34 -131 202 C-129.515 201.62875 -129.515 201.62875 -128 201.25 C-117.72828137 198.32137582 -106.85751046 192.90500697 -98 187 C-97.01 186.46375 -96.02 185.9275 -95 185.375 C-90.62578416 182.90868682 -86.66738241 179.90215793 -82.6484375 176.90234375 C-80 175 -80 175 -77.296875 173.38671875 C-74.88741676 172.05732479 -74.88741676 172.05732479 -72.875 169.875 C-71 168 -71 168 -68 167 C-67.67 166.34 -67.34 165.68 -67 165 C-66.34 165 -65.68 165 -65 165 C-64.773125 164.443125 -64.54625 163.88625 -64.3125 163.3125 C-62.61382022 160.31958801 -60.57927313 158.26472763 -58 156 C-57.01 156 -56.02 156 -55 156 C-54.6596875 154.9171875 -54.6596875 154.9171875 -54.3125 153.8125 C-52.75173074 150.46799444 -50.6266129 148.55926385 -48 146 C-47.67 145.01 -47.34 144.02 -47 143 C-46.02351983 141.97702078 -45.01868662 140.98095748 -44 140 C-43.319375 139.113125 -42.63875 138.22625 -41.9375 137.3125 C-41.298125 136.549375 -40.65875 135.78625 -40 135 C-39.34 135 -38.68 135 -38 135 C-38 133.68 -38 132.36 -38 131 C-37.34 131 -36.68 131 -36 131 C-36 130.34 -36 129.68 -36 129 C-35 128 -34 127 -33 126 C-31.80400932 123.96767758 -31.80400932 123.96767758 -30.8125 121.8125 C-30.46832031 121.09707031 -30.12414062 120.38164063 -29.76953125 119.64453125 C-29.51558594 119.10183594 -29.26164062 118.55914063 -29 118 C-28.34 118 -27.68 118 -27 118 C-26.88527344 117.278125 -26.77054688 116.55625 -26.65234375 115.8125 C-25.97407813 112.88824106 -24.95793534 110.65008491 -23.5625 108 C-21.84519017 104.71916928 -20.32778584 101.45841892 -19 98 C-18.34 98 -17.68 98 -17 98 C-16.67 95.69 -16.34 93.38 -16 91 C-15.34 91 -14.68 91 -14 91 C-14.0825 89.824375 -14.165 88.64875 -14.25 87.4375 C-14.25681469 83.53267999 -13.23109394 81.35609848 -11.0859375 78.0546875 C-7.25240996 70.80132245 -6.26596476 61.31464286 -5.3203125 53.24609375 C-4.96580544 50.7602211 -4.46182039 48.33044409 -3.9375 45.875 C-3.16202378 42.17438188 -2.90277313 38.79184779 -3 35 C-2.67 34.67 -2.34 34.34 -2 34 C-1.92674832 31.13732433 -1.90761795 28.299281 -1.9375 25.4375 C-1.94426758 24.22803711 -1.94426758 24.22803711 -1.95117188 22.99414062 C-1.96299482 20.99606244 -1.98093086 18.99802217 -2 17 C-1.67 17 -1.34 17 -1 17 C-0.67 11.39 -0.34 5.78 0 0 Z " fill="#6E1FEF" transform="translate(753,406)"/>
<path d="M0 0 C14.56417721 -0.11064505 29.12536158 -0.09039063 43.6895752 0.00323486 C47.24047313 0.02401432 50.79134746 0.04005204 54.34227467 0.05441093 C62.65750032 0.08828475 70.97239394 0.13933496 79.28736591 0.21317863 C83.43201637 0.24983442 87.57649464 0.28100509 91.72128296 0.29650879 C116.53912249 0.39808026 139.79439767 2.50883097 163.59039307 10.02606201 C164.3851001 10.27195068 165.17980713 10.51783936 165.99859619 10.7711792 C178.99317503 14.84540396 190.75838594 20.3132203 202.59039307 27.02606201 C203.21510498 27.37765381 203.83981689 27.72924561 204.48345947 28.0914917 C207.8873255 30.01405445 211.25274757 31.99091232 214.59039307 34.02606201 C215.269729 34.43727295 215.94906494 34.84848389 216.64898682 35.27215576 C218.34039307 36.33856201 218.34039307 36.33856201 220.59039307 38.02606201 C220.59039307 38.68606201 220.59039307 39.34606201 220.59039307 40.02606201 C221.29551025 40.26324951 222.00062744 40.50043701 222.72711182 40.74481201 C226.09326175 42.25108374 228.56022479 44.18190718 231.40289307 46.52606201 C232.37871338 47.32012451 233.35453369 48.11418701 234.35992432 48.93231201 C235.095979 49.62324951 235.83203369 50.31418701 236.59039307 51.02606201 C236.59039307 51.68606201 236.59039307 52.34606201 236.59039307 53.02606201 C237.16273682 53.27356201 237.73508057 53.52106201 238.32476807 53.77606201 C240.94049918 55.21922401 242.73812763 56.90822423 244.84039307 59.02606201 C245.90000244 60.07793701 245.90000244 60.07793701 246.98101807 61.15106201 C248.59039307 63.02606201 248.59039307 63.02606201 248.59039307 65.02606201 C249.91039307 65.68606201 251.23039307 66.34606201 252.59039307 67.02606201 C252.59039307 67.68606201 252.59039307 68.34606201 252.59039307 69.02606201 C253.58039307 69.35606201 254.57039307 69.68606201 255.59039307 70.02606201 C256.92144775 71.43377686 256.92144775 71.43377686 258.26226807 73.23699951 C258.75847656 73.89949707 259.25468506 74.56199463 259.76593018 75.24456787 C260.28550293 75.95621094 260.80507568 76.667854 261.34039307 77.40106201 C261.8760791 78.12624023 262.41176514 78.85141846 262.96368408 79.59857178 C268.65301309 87.36581747 273.81000576 95.36851579 278.39898682 103.83465576 C279.22705629 105.3577606 280.07495541 106.87018365 280.93804932 108.37371826 C287.02162576 118.99780656 287.02162576 118.99780656 286.12945557 123.19403076 C285.95156494 123.79860107 285.77367432 124.40317139 285.59039307 125.02606201 C285.11730713 124.05668701 284.64422119 123.08731201 284.15679932 122.08856201 C265.39611386 82.5090026 265.39611386 82.5090026 233.59039307 55.02606201 C232.54948647 53.38463238 231.5453498 51.71893986 230.59039307 50.02606201 C229.60039307 49.69606201 228.61039307 49.36606201 227.59039307 49.02606201 C225.9237264 47.35939535 224.25705973 45.69272868 222.59039307 44.02606201 C218.12114277 40.17964853 218.12114277 40.17964853 212.59039307 39.02606201 C212.26039307 38.03606201 211.93039307 37.04606201 211.59039307 36.02606201 C209.73017235 34.79329075 209.73017235 34.79329075 207.52789307 33.83856201 C206.7944165 33.49438232 206.06093994 33.15020264 205.30523682 32.79559326 C204.73933838 32.54164795 204.17343994 32.28770264 203.59039307 32.02606201 C203.59039307 31.36606201 203.59039307 30.70606201 203.59039307 30.02606201 C202.88914307 29.75793701 202.18789307 29.48981201 201.46539307 29.21356201 C198.59039307 28.02606201 198.59039307 28.02606201 195.52789307 26.40106201 C192.52716336 24.74343527 192.52716336 24.74343527 188.59039307 25.02606201 C188.59039307 24.36606201 188.59039307 23.70606201 188.59039307 23.02606201 C187.41670166 22.75342529 187.41670166 22.75342529 186.21929932 22.47528076 C184.70142822 22.09822998 184.70142822 22.09822998 183.15289307 21.71356201 C182.14355713 21.4699292 181.13422119 21.22629639 180.09429932 20.97528076 C178.85486572 20.50541748 178.85486572 20.50541748 177.59039307 20.02606201 C177.26039307 19.03606201 176.93039307 18.04606201 176.59039307 17.02606201 C175.33226807 17.02606201 174.07414307 17.02606201 172.77789307 17.02606201 C168.25368747 17.02606201 164.06177611 16.82097455 159.59039307 16.02606201 C159.26039307 15.03606201 158.93039307 14.04606201 158.59039307 13.02606201 C155.419525 10.90475867 152.12919277 10.50367123 148.40289307 9.96356201 C142.69237607 9.12804501 142.69237607 9.12804501 141.59039307 8.02606201 C138.89956435 8.20241654 136.26187861 8.64442122 133.59039307 9.02606201 C133.92039307 8.03606201 134.25039307 7.04606201 134.59039307 6.02606201 C130.13539307 6.52106201 130.13539307 6.52106201 125.59039307 7.02606201 C125.26039307 6.36606201 124.93039307 5.70606201 124.59039307 5.02606201 C123.93039307 5.68606201 123.27039307 6.34606201 122.59039307 7.02606201 C121.82726807 6.67543701 121.06414307 6.32481201 120.27789307 5.96356201 C117.54279928 4.70245318 117.54279928 4.70245318 114.59039307 6.02606201 C113.60039307 5.03606201 113.60039307 5.03606201 112.59039307 4.02606201 C110.73002179 3.74190496 110.73002179 3.74190496 108.59063721 3.81488037 C107.76540054 3.81825912 106.94016388 3.82163788 106.08992004 3.82511902 C105.1941777 3.83857864 104.29843536 3.85203827 103.37554932 3.86590576 C102.45003769 3.87110733 101.52452606 3.8763089 100.57096863 3.88166809 C97.59811945 3.8995199 94.62561056 3.93063064 91.65289307 3.96356201 C88.71234124 3.99135094 85.7718472 4.01612443 82.83122253 4.03474426 C81.00123013 4.04680867 79.17126169 4.06421256 77.34138489 4.08805847 C73.10465543 4.12047356 68.98350988 3.99693277 64.77178955 3.52825928 C56.63523246 2.7210762 48.46297804 2.91629356 40.2958374 2.95089722 C37.22767444 2.96377275 34.15955518 2.97020375 31.09136963 2.97503662 C24.59102426 2.98639791 18.09071555 3.00567467 11.59039307 3.02606201 C4.02680732 3.04967261 -3.53675844 3.07002864 -11.10037231 3.08200073 C-14.1244581 3.08848663 -17.14848132 3.10098731 -20.17254639 3.1137085 C-22.01719101 3.1173392 -23.86183622 3.12069116 -25.70648193 3.12371826 C-26.96880898 3.13146774 -26.96880898 3.13146774 -28.25663757 3.13937378 C-31.56736933 3.13967659 -34.24597591 3.08060568 -37.40960693 2.02606201 C-37.73960693 2.68606201 -38.06960693 3.34606201 -38.40960693 4.02606201 C-38.90460693 3.53106201 -38.90460693 3.53106201 -39.40960693 3.02606201 C-48.68938518 2.25124558 -59.55594181 3.032979 -68.40960693 6.02606201 C-68.73960693 6.68606201 -69.06960693 7.34606201 -69.40960693 8.02606201 C-71.40960693 7.02606201 -71.40960693 7.02606201 -72.40960693 4.02606201 C-65.29587497 1.07670832 -58.84455401 0.55867299 -51.19866943 0.51434326 C-49.43031487 0.4872805 -49.43031487 0.4872805 -47.62623596 0.45967102 C-43.7623897 0.40470346 -39.89870324 0.37098435 -36.03460693 0.33856201 C-33.99519397 0.31546252 -31.95581287 0.29033359 -29.91642666 0.26499176 C-19.94447848 0.14161608 -9.9723805 0.07622588 0 0 Z " fill="#EC29FE" transform="translate(451.40960693359375,222.97393798828125)"/>
<path d="M0 0 C-1.25 2 -1.25 2 -3 4 C-4.32 4 -5.64 4 -7 4 C-11.36790549 5.22921931 -15.23193698 7.03520341 -19.25 9.125 C-24.77990431 12 -24.77990431 12 -27 12 C-27.33 12.66 -27.66 13.32 -28 14 C-33.42307692 17 -33.42307692 17 -36 17 C-36 17.66 -36 18.32 -36 19 C-38.2727675 20.49524178 -40.5679943 21.78399715 -43 23 C-43.495 24.485 -43.495 24.485 -44 26 C-47.0625 27.1875 -47.0625 27.1875 -50 28 C-50 29.32 -50 30.64 -50 32 C-50.7528125 32.24234375 -51.505625 32.4846875 -52.28125 32.734375 C-55.3778938 34.17591608 -56.51954403 35.5035186 -58.5 38.25 C-59.09167969 39.04921875 -59.68335938 39.8484375 -60.29296875 40.671875 C-60.85628906 41.44015625 -61.41960937 42.2084375 -62 43 C-66.54344123 48.77172061 -66.54344123 48.77172061 -69 50 C-69.2165625 50.928125 -69.2165625 50.928125 -69.4375 51.875 C-70 54 -70 54 -71.4453125 55.37109375 C-73.25893635 57.27129763 -73.72217485 58.67719746 -74.4375 61.1875 C-75.41088474 64.34843885 -76.52207252 67.1981878 -78.0625 70.125 C-79.90563478 73.65008287 -80.98212998 77.14663491 -82 81 C-82.6469365 82.6744239 -83.30959426 84.34302621 -84 86 C-85.42226363 90.2667909 -85.86584209 94.62234653 -86.5 99.06640625 C-87 102 -87 102 -88 104 C-89.15497651 111.25988612 -89.13832596 118.58892113 -89.11352539 125.91967773 C-89.11367142 127.06724045 -89.11381744 128.21480316 -89.1139679 129.3971405 C-89.11327585 133.15931137 -89.1055155 136.92143161 -89.09765625 140.68359375 C-89.09578919 143.30770338 -89.09436665 145.93181336 -89.09336853 148.55592346 C-89.09027288 154.73919457 -89.082085 160.92244778 -89.07201904 167.10571104 C-89.06081863 174.13879046 -89.05533496 181.17187076 -89.05032361 188.20495689 C-89.04032389 202.07529307 -89.02387786 215.94561612 -89.00279331 229.8159399 C-88.99834124 233.29696971 -89.01090134 236.77718433 -89.03796387 240.25810242 C-89.04637802 241.34765228 -89.05479218 242.43720215 -89.0634613 243.55976868 C-89.07281204 244.75522812 -89.08216278 245.95068756 -89.09179688 247.18237305 C-89.10155045 248.44102173 -89.11130402 249.69967041 -89.12135315 250.99645996 C-89.14810765 254.44865237 -89.17500567 257.90084364 -89.20192909 261.35303473 C-89.23003935 264.96051962 -89.25801813 268.56800553 -89.28601074 272.17549133 C-89.33904151 279.00713224 -89.39219086 285.83877223 -89.4453826 292.67041188 C-89.50593258 300.44784189 -89.56635069 308.22527291 -89.62675762 316.00270402 C-89.75102481 332.00180383 -89.87545795 348.00090233 -90 364 C-90.33 364 -90.66 364 -91 364 C-91.81114607 310.23434667 -92.18878674 256.47808418 -92.18511021 202.70644104 C-92.18546864 195.00614823 -92.19723679 187.30589933 -92.2110464 179.60562056 C-92.22416891 172.00631848 -92.22948559 164.40703617 -92.22884732 156.80772287 C-92.22859638 152.34424237 -92.2312265 147.88081749 -92.24202538 143.41734886 C-92.30498895 115.44339654 -91.8804219 89.89221518 -80 64 C-79.68417969 63.29875 -79.36835938 62.5975 -79.04296875 61.875 C-72.39025322 47.83352381 -62.27043448 35.81502059 -50.375 25.875 C-48.62518101 24.41021939 -46.9817901 22.98071365 -45.4140625 21.3203125 C-44 20 -44 20 -42 20 C-42 19.34 -42 18.68 -42 18 C-33.84565885 11.31545368 -23.84483268 6.6067491 -14.125 2.6875 C-13.4944873 2.43291016 -12.86397461 2.17832031 -12.21435547 1.91601562 C-3.21330917 -1.60665459 -3.21330917 -1.60665459 0 0 Z " fill="#FD48FE" transform="translate(378,228)"/>
<path d="M0 0 C1.21884384 -0.0033284 2.43768768 -0.0066568 3.69346619 -0.01008606 C6.26284407 -0.01513537 8.83222848 -0.017495 11.40161133 -0.01733398 C15.32969922 -0.01952559 19.25750842 -0.03771683 23.18554688 -0.05664062 C25.68619696 -0.05957393 28.18684837 -0.06155915 30.6875 -0.0625 C31.85950455 -0.06968552 33.03150909 -0.07687103 34.23902893 -0.08427429 C47.06102457 -0.04835043 47.06102457 -0.04835043 50.27734375 3.16796875 C51.5711041 9.68502799 51.45634651 16.23248378 51.48046875 22.85546875 C51.48616882 24.07194092 51.4918689 25.28841309 51.4977417 26.54174805 C51.50716221 29.10692482 51.51371392 31.67211353 51.51757812 34.23730469 C51.52731031 38.15451069 51.55837333 42.0711976 51.58984375 45.98828125 C51.59637199 48.48567398 51.60162316 50.98307045 51.60546875 53.48046875 C51.61781555 54.64731201 51.63016235 55.81415527 51.6428833 57.01635742 C51.62204718 64.63986134 50.95785307 71.48745943 45.27734375 77.16796875 C41.22913091 78.7748133 37.79988154 79.42224308 33.45898438 79.44262695 C32.33762085 79.45215897 31.21625732 79.46169098 30.06091309 79.47151184 C28.86389771 79.47060043 27.66688232 79.46968903 26.43359375 79.46875 C24.5699115 79.47517769 24.5699115 79.47517769 22.6685791 79.48173523 C19.37634101 79.48893328 16.08428664 79.48586415 12.79205322 79.48016357 C10.77906063 79.48046849 8.76636169 79.4905143 6.75341797 79.50415039 C2.87583645 79.52864989 -1.00125698 79.53280581 -4.87890625 79.53125 C-6.67442932 79.54506462 -6.67442932 79.54506462 -8.50622559 79.55915833 C-19.07408123 79.50045751 -19.07408123 79.50045751 -23.72265625 76.16796875 C-25.87459995 72.9400532 -25.92352068 71.88396066 -25.72265625 68.16796875 C-25.06265625 69.15796875 -24.40265625 70.14796875 -23.72265625 71.16796875 C-21.98326039 74.05224976 -21.98326039 74.05224976 -18.72265625 76.16796875 C-14.31916083 76.90150237 -9.95809012 76.79621524 -5.50390625 76.7265625 C-4.21327271 76.72423111 -2.92263916 76.72189972 -1.59289551 76.71949768 C1.13422187 76.71334427 3.860514 76.69070672 6.58740234 76.6550293 C10.07436584 76.60975727 13.56058315 76.59500245 17.04781342 76.59129238 C20.38484834 76.58578598 23.72163338 76.56240581 27.05859375 76.5390625 C28.30765503 76.5336998 29.55671631 76.5283371 30.84362793 76.52281189 C32.00833618 76.50682449 33.17304443 76.4908371 34.37304688 76.47436523 C35.39499146 76.46372543 36.41693604 76.45308563 37.46984863 76.44212341 C40.52613177 76.14367436 42.60754774 75.69855814 45.27734375 74.16796875 C47.48515873 70.39857474 47.52109792 66.93466686 47.50439453 62.63354492 C47.50424347 61.3325737 47.50409241 60.03160248 47.50393677 58.69120789 C47.49372499 57.28111618 47.48329302 55.87102606 47.47265625 54.4609375 C47.46892334 53.01076961 47.46607768 51.56059918 47.46408081 50.11042786 C47.45646624 46.30458541 47.43683664 42.49889705 47.41467285 38.69311523 C47.39416738 34.80519698 47.38506906 30.91725369 47.375 27.02929688 C47.35358853 19.40878413 47.31947909 11.78839808 47.27734375 4.16796875 C44.6018856 2.83023968 42.54179897 3.03346707 39.54589844 3.02270508 C37.74327545 3.0131353 37.74327545 3.0131353 35.90423584 3.00337219 C34.5990802 3.00225937 33.29392456 3.00114655 31.94921875 3 C30.59881556 2.99678663 29.24841271 2.9934225 27.89801025 2.98991394 C25.06334629 2.98392004 22.22871282 2.98207418 19.39404297 2.98266602 C15.77152898 2.98276736 12.1492122 2.96914477 8.52674484 2.95189381 C5.7350984 2.94074035 2.94349902 2.93874787 0.15183258 2.93927574 C-1.83004713 2.93752929 -3.81191214 2.92670487 -5.79376221 2.91572571 C-7.00811951 2.91880234 -8.22247681 2.92187897 -9.47363281 2.92504883 C-11.07008636 2.9229113 -11.07008636 2.9229113 -12.6987915 2.92073059 C-16.00759485 3.19126599 -18.65996564 3.89600028 -21.72265625 5.16796875 C-24.50581194 9.60160049 -24.12627387 14.90743684 -24.2890625 19.9921875 C-24.36783231 21.72169844 -24.53791856 23.44654934 -24.72265625 25.16796875 C-25.38265625 25.49796875 -26.04265625 25.82796875 -26.72265625 26.16796875 C-26.83137592 23.62513641 -26.91028026 21.08701787 -26.97265625 18.54296875 C-27.00617187 17.83011719 -27.0396875 17.11726562 -27.07421875 16.3828125 C-27.17031522 11.14555492 -26.08295271 8.37945562 -22.72265625 4.16796875 C-22.28953125 3.56984375 -21.85640625 2.97171875 -21.41015625 2.35546875 C-15.978474 -1.46682616 -6.29150444 0.00598415 0 0 Z " fill="#6A19F9" transform="translate(540.72265625,702.83203125)"/>
<path d="M0 0 C0.7734375 0.3403125 0.7734375 0.3403125 1.5625 0.6875 C1.2325 1.6775 0.9025 2.6675 0.5625 3.6875 C-1.625 4.75 -1.625 4.75 -4.4375 5.6875 C-5.46875 6.079375 -6.5 6.47125 -7.5625 6.875 C-10.4375 7.6875 -10.4375 7.6875 -13.4375 6.6875 C-15.40475826 6.91118243 -17.36336887 7.21461107 -19.3125 7.5625 C-30.79693832 9.60609679 -42.39190293 9.83273586 -54.02744484 9.88673019 C-56.39790541 9.89877214 -58.76820343 9.91827919 -61.13859558 9.93984985 C-67.86846348 10.00064586 -74.59830502 10.05532947 -81.32836914 10.08886719 C-85.47381123 10.11005848 -89.61893746 10.14553565 -93.7641964 10.18962479 C-95.32231575 10.20357566 -96.88049073 10.21245863 -98.4386692 10.21567917 C-111.78107138 10.2461893 -125.95071908 10.8199125 -137.875 17.4375 C-138.53693359 17.78820557 -139.19886719 18.13891113 -139.88085938 18.50024414 C-154.9218562 26.6757418 -165.98947475 39.34342424 -171.4375 55.6875 C-172.0975 55.6875 -172.7575 55.6875 -173.4375 55.6875 C-172.31342631 41.44923331 -160.56731565 30.3019837 -150.6015625 21.26953125 C-148.4375 19.6875 -148.4375 19.6875 -145.4375 19.6875 C-145.4375 19.0275 -145.4375 18.3675 -145.4375 17.6875 C-131.0177731 9.49447335 -117.06135012 7.09126683 -100.70716667 7.2016449 C-98.00663132 7.21929382 -95.30713104 7.21119276 -92.60658264 7.1973877 C-85.89997357 7.16811729 -79.19357808 7.18080187 -72.48693848 7.19256592 C-38.33205976 8.59207003 -38.33205976 8.59207003 -5.51147461 1.03320312 C-2.4375 -0.3125 -2.4375 -0.3125 0 0 Z " fill="#A620FD" transform="translate(585.4375,528.3125)"/>
<path d="M0 0 C1.051875 0.04415039 2.10375 0.08830078 3.1875 0.13378906 C18.9822274 0.81515128 18.9822274 0.81515128 26.8125 3.75 C31.23441755 5.3920914 35.68619856 6.84155896 40.1875 8.25 C56.90178389 13.67398267 70.48244476 22.96144278 84 34 C84.90105469 34.69609375 84.90105469 34.69609375 85.8203125 35.40625 C89.40750956 38.21832407 91.51353945 41.21307021 94 45 C96.26711115 48.05293824 98.57189218 51.07480645 100.87890625 54.09765625 C106 61.10497238 106 61.10497238 106 64 C102.15521125 62.54163185 100.8177085 60.63541701 99 57 C98.3125 54.6875 98.3125 54.6875 98 53 C97.34 53 96.68 53 96 53 C94.73078387 51.37921697 93.53497379 49.7006787 92.375 48 C85.56547484 38.45690201 77.55009636 31.74840993 68 25 C67.113125 24.36835938 66.22625 23.73671875 65.3125 23.0859375 C58.96516538 18.79770845 52.41717398 15.93799918 45.28515625 13.26171875 C42 12 42 12 39.80078125 10.89453125 C37.9103833 9.95548325 36.18063882 9.46231235 34.125 9 C31.76456853 8.46484145 29.56132029 7.8442748 27.27514648 7.03271484 C14.94783965 3.14568481 1.35562492 3.60186617 -11.4375 3.375 C-13.2480632 3.33670181 -15.0586105 3.29764384 -16.86914062 3.2578125 C-21.24596039 3.1631429 -25.62286445 3.0786599 -30 3 C-30 2.67 -30 2.34 -30 2 C-48.48 1.67 -66.96 1.34 -86 1 C-86 0.67 -86 0.34 -86 0 C-57.29365327 -0.7747677 -28.69569199 -1.26644913 0 0 Z " fill="#EA2AFE" transform="translate(542,311)"/>
<path d="M0 0 C0.73148758 -0.00191345 1.46297516 -0.0038269 2.21662903 -0.00579834 C3.74850818 -0.00714845 5.28039924 -0.00353487 6.81225586 0.00488281 C9.14918683 0.01564644 11.48535739 0.00492403 13.82226562 -0.0078125 C15.3190121 -0.0064916 16.8157581 -0.00393066 18.3125 0 C19.00530563 -0.00404846 19.69811127 -0.00809692 20.41191101 -0.01226807 C25.80861836 0.03971397 29.19964287 0.67687205 33.23413086 4.32421875 C35.61131243 8.38264068 35.55096943 11.70164285 35.5234375 16.328125 C35.53273537 17.63148804 35.53273537 17.63148804 35.54222107 18.96118164 C35.549307 20.79344566 35.54616664 22.62577424 35.53344727 24.45800781 C35.51957367 27.2570666 35.55367645 30.05278546 35.59179688 32.8515625 C35.59274808 34.63541748 35.59088919 36.41927664 35.5859375 38.203125 C35.59919571 39.03658447 35.61245392 39.87004395 35.62611389 40.72875977 C35.55576206 45.13133185 35.38389433 46.74791939 32.48022461 50.26953125 C31.6475708 50.92824219 30.81491699 51.58695313 29.95703125 52.265625 C29.62703125 52.595625 29.29703125 52.925625 28.95703125 53.265625 C25.91299915 53.40414642 22.89334414 53.47884835 19.84765625 53.50390625 C18.92869568 53.511978 18.00973511 53.52004974 17.06292725 53.52836609 C15.11260882 53.54222606 13.16226594 53.55293962 11.21191406 53.56079102 C8.2332527 53.57797374 5.25570965 53.62183867 2.27734375 53.66601562 C0.38412276 53.67614478 -1.50910768 53.68466019 -3.40234375 53.69140625 C-4.292099 53.70891434 -5.18185425 53.72642242 -6.09857178 53.74446106 C-10.19360549 53.73015223 -12.48383545 53.5923848 -16.08300781 51.48901367 C-19.82631001 47.2425945 -19.21500826 42.69426725 -19.24609375 37.24609375 C-19.25464386 36.08089958 -19.25464386 36.08089958 -19.2633667 34.89216614 C-19.27279623 33.25063429 -19.27934254 31.60908369 -19.28320312 29.9675293 C-19.29289485 27.47215262 -19.32393094 24.97760499 -19.35546875 22.48242188 C-19.36200106 20.88281736 -19.36725064 19.28320699 -19.37109375 17.68359375 C-19.38344055 16.94481491 -19.39578735 16.20603607 -19.4085083 15.44487 C-19.38688224 10.34797752 -18.82113654 6.61482131 -16.04296875 2.265625 C-10.74457008 0.22251361 -5.65894631 -0.0333609 0 0 Z M-16.04296875 6.265625 C-18.5689457 11.3175789 -17.35612574 19.23640702 -17.39306641 24.859375 C-17.40963705 26.71008876 -17.43694183 28.56073823 -17.47509766 30.41113281 C-17.52982791 33.07911373 -17.55173209 35.74559608 -17.56640625 38.4140625 C-17.58907562 39.24022064 -17.611745 40.06637878 -17.63510132 40.91757202 C-17.62080585 44.8001316 -17.51623363 46.65788112 -15.07885742 49.7878418 C-10.93710701 51.80392666 -7.49625697 51.8228297 -2.9453125 51.76171875 C-1.63839195 51.7639016 -1.63839195 51.7639016 -0.30506897 51.76612854 C1.53143671 51.76447287 3.36795674 51.75294882 5.2043457 51.73217773 C8.01378291 51.70318432 10.82133638 51.71158298 13.63085938 51.72460938 C15.41797791 51.71837264 17.2050905 51.70998221 18.9921875 51.69921875 C19.83080826 51.70215439 20.66942902 51.70509003 21.53346252 51.70811462 C25.01950929 51.6517426 27.34693153 51.59282832 30.45483398 49.92602539 C33.75521803 46.27806311 33.1513592 41.68485436 33.1953125 37.0546875 C33.20338425 36.24953705 33.21145599 35.4443866 33.21977234 34.61483765 C33.23359425 32.91186668 33.24432487 31.20886823 33.25219727 29.50585938 C33.2694226 26.90701706 33.31332512 24.3094433 33.35742188 21.7109375 C33.36754839 20.05469683 33.37606462 18.39844538 33.3828125 16.7421875 C33.40032059 15.96807526 33.41782867 15.19396301 33.43586731 14.39639282 C33.42081314 10.63637386 33.10420197 8.49527102 31.05541992 5.29833984 C27.24565118 1.60780645 23.67484338 2.07367143 18.625 2.02734375 C17.38185783 2.01523613 17.38185783 2.01523613 16.11360168 2.00288391 C14.3575754 1.98904279 12.60152221 1.97832076 10.84545898 1.97045898 C8.16533116 1.95325849 5.48644097 1.90937574 2.80664062 1.86523438 C1.10026949 1.85510621 -0.60611214 1.84659049 -2.3125 1.83984375 C-3.11162308 1.82233566 -3.91074615 1.80482758 -4.73408508 1.78678894 C-9.76514783 1.80631093 -12.39744428 2.47270854 -16.04296875 6.265625 Z " fill="#7C22FC" transform="translate(621.04296875,646.734375)"/>
<path d="M0 0 C1.76494496 3.05226186 2.24955151 5.24555559 2.24723816 8.75747681 C2.25143265 9.71088455 2.25562714 10.6642923 2.25994873 11.64659119 C2.25432922 12.68570145 2.24870972 13.72481171 2.24291992 14.79541016 C2.24481827 15.89493515 2.24671661 16.99446014 2.24867249 18.12730408 C2.25237973 21.76462922 2.24167768 25.40175508 2.23046875 29.0390625 C2.22927694 31.562042 2.22882379 34.08502194 2.2290802 36.60800171 C2.22751549 41.89559924 2.21946853 47.1831275 2.20581055 52.47070312 C2.19006954 58.58738639 2.18481304 64.70400681 2.1855461 70.82070887 C2.18615596 76.70362457 2.18094725 82.58652213 2.17275429 88.46943283 C2.16956394 90.97417451 2.16759936 93.47891805 2.16686058 95.98366165 C2.16470188 99.47693318 2.1559683 102.9701245 2.14526367 106.46337891 C2.14571686 107.50653763 2.14617004 108.54969635 2.14663696 109.62446594 C2.14237198 110.57223404 2.13810699 111.52000214 2.13371277 112.49649048 C2.13203692 113.32275248 2.13036108 114.14901447 2.12863445 115.00031471 C2 117 2 117 1 119 C3.69719413 117.65140294 3.88235129 116.25919525 5 113.5 C6.56521188 109.63588318 7.32448206 108.83775897 11 107 C11.72693904 105.02111039 12.39816251 103.02045442 13 101 C13.66 101 14.32 101 15 101 C15.33 99.35 15.66 97.7 16 96 C16.66 96 17.32 96 18 96 C17.67 95.01 17.34 94.02 17 93 C17.5775 92.484375 18.155 91.96875 18.75 91.4375 C21.46936119 88.49152537 23.10156592 85.52566329 25 82 C25.99 82 26.98 82 28 82 C26.50067574 87.84736463 23.39722603 92.12116438 20 97 C16.01533432 102.81030931 12.1480075 108.56636789 8.875 114.8125 C6.40177762 119.4879067 3.65337251 123.17670319 0 127 C-0.33 127 -0.66 127 -1 127 C-1.03112445 116.89584511 -1.05115844 106.79169447 -1.0625 96.6875 C-1.06335602 95.93035202 -1.06421204 95.17320404 -1.06509399 94.39311218 C-1.09646518 62.9192424 -0.67026464 31.4668774 0 0 Z " fill="#5E1DAE" transform="translate(409,603)"/>
<path d="M0 0 C0.33 0 0.66 0 1 0 C1 9.9 1 19.8 1 30 C1.66 30.33 2.32 30.66 3 31 C3.0292814 35.47915271 3.04689296 39.95828042 3.0625 44.4375 C3.07087891 45.69755859 3.07925781 46.95761719 3.08789062 48.25585938 C3.10531376 54.9289203 2.91378066 61.38768168 2 68 C2.66 68.33 3.32 68.66 4 69 C3.84660156 69.67417969 3.69320313 70.34835937 3.53515625 71.04296875 C2.91516143 74.46877952 2.6647426 77.83893447 2.4375 81.3125 C2.35371094 82.56675781 2.26992188 83.82101562 2.18359375 85.11328125 C2.09271484 86.54220703 2.09271484 86.54220703 2 88 C9.0633807 88.21190142 15.22326892 88.05722194 22 86 C24.42577138 85.35250203 26.68747889 84.90564015 29.1875 84.5625 C30.5796875 84.2840625 30.5796875 84.2840625 32 84 C32.33 83.34 32.66 82.68 33 82 C34.87807562 81.02742512 36.76017176 80.06164074 38.6640625 79.140625 C41.09572165 77.95325966 43.49114044 76.71814947 45.875 75.4375 C46.61492187 75.04433594 47.35484375 74.65117188 48.1171875 74.24609375 C50.29238166 72.98145073 50.29238166 72.98145073 52 70 C53.83984375 68.71875 53.83984375 68.71875 55.9375 67.5 C58.10660268 66.23502797 59.83675296 65.17261034 61.56640625 63.34375 C63 62 63 62 66 62 C64.68754479 64.99327684 63.42547943 66.75439486 60.83203125 68.734375 C60.19362305 69.22228516 59.55521484 69.71019531 58.89746094 70.21289062 C58.20942383 70.72013672 57.52138672 71.22738281 56.8125 71.75 C56.0999707 72.27787109 55.38744141 72.80574219 54.65332031 73.34960938 C38.31980703 85.1905051 21.4475031 92.00755812 1 91 C-0.83357444 89.16642556 -0.11999967 86.60364305 -0.12442017 84.1640625 C-0.12082489 83.32609131 -0.11722961 82.48812012 -0.11352539 81.62475586 C-0.11367142 80.74678848 -0.11381744 79.86882111 -0.1139679 78.96424866 C-0.11326844 76.04775565 -0.10547455 73.13132567 -0.09765625 70.21484375 C-0.09579218 68.19845108 -0.09436823 66.18205796 -0.09336853 64.16566467 C-0.08954244 58.84734862 -0.07971139 53.5290597 -0.06866455 48.21075439 C-0.05845238 42.78829312 -0.05387133 37.36582748 -0.04882812 31.94335938 C-0.0380892 21.29556097 -0.02101169 10.64778274 0 0 Z " fill="#611EBD" transform="translate(286,706)"/>
<path d="M0 0 C0.33 0 0.66 0 1 0 C1.33 13.53 1.66 27.06 2 41 C2.33 41 2.66 41 3 41 C3 84.375 3 84.375 2.96203613 89.25810242 C2.95362198 90.34765228 2.94520782 91.43720215 2.9365387 92.55976868 C2.92718796 93.75522812 2.91783722 94.95068756 2.90820312 96.18237305 C2.89844955 97.44102173 2.88869598 98.69967041 2.87864685 99.99645996 C2.85189235 103.44865237 2.82499433 106.90084364 2.79807091 110.35303473 C2.76996065 113.96051962 2.74198187 117.56800553 2.71398926 121.17549133 C2.66095849 128.00713224 2.60780914 134.83877223 2.5546174 141.67041188 C2.49406742 149.44784189 2.43364931 157.22527291 2.37324238 165.00270402 C2.24897519 181.00180383 2.12454205 197.00090233 2 213 C1.67 213 1.34 213 1 213 C0.81281199 202.43779592 0.64987152 191.8752942 0.5 181.3125 C0.48812275 180.47617035 0.4762455 179.6398407 0.46400833 178.77816772 C-0.08283822 139.68619471 -0.08494682 100.59486237 -0.0625 61.5 C-0.06207577 60.7394344 -0.06165154 59.9788688 -0.06121445 59.19525576 C-0.05002383 39.46349163 -0.02973434 19.73174535 0 0 Z " fill="#E62FFB" transform="translate(286,379)"/>
<path d="M0 0 C36.5069419 -0.26756122 72.99856288 0.3368843 109.49755859 1.02606201 C109.49755859 1.35606201 109.49755859 1.68606201 109.49755859 2.02606201 C74.2599808 2.71703303 39.02931994 3.13532305 3.78465652 3.14944458 C1.1179798 3.15106479 -1.54868843 3.15462614 -4.21536255 3.15863037 C-8.42831755 3.16445767 -12.64123622 3.16472894 -16.85419273 3.16038132 C-18.41410999 3.159385 -19.97402913 3.15997112 -21.53394508 3.16222 C-23.66980296 3.1647576 -25.80555617 3.1609885 -27.94140625 3.15545654 C-29.7424733 3.15426315 -29.7424733 3.15426315 -31.57992554 3.15304565 C-34.50244141 3.02606201 -34.50244141 3.02606201 -37.50244141 2.02606201 C-37.83244141 2.68606201 -38.16244141 3.34606201 -38.50244141 4.02606201 C-38.99744141 3.53106201 -38.99744141 3.53106201 -39.50244141 3.02606201 C-48.78221966 2.25124558 -59.64877628 3.032979 -68.50244141 6.02606201 C-68.83244141 6.68606201 -69.16244141 7.34606201 -69.50244141 8.02606201 C-71.50244141 7.02606201 -71.50244141 7.02606201 -72.50244141 4.02606201 C-65.38871171 1.07670926 -58.93738359 0.55867034 -51.29150391 0.51434326 C-50.11201172 0.49630142 -48.93251953 0.47825958 -47.71728516 0.45967102 C-43.85403413 0.40473231 -39.99094185 0.37100846 -36.12744141 0.33856201 C-34.09498332 0.31547507 -32.06255755 0.29034306 -30.03012657 0.26499176 C-20.02028567 0.14068384 -10.01029786 0.07448761 0 0 Z " fill="#FE4AFE" transform="translate(451.50244140625,222.97393798828125)"/>
<path d="M0 0 C1.32 0.33 2.64 0.66 4 1 C2.80023986 4.08509749 1.51795039 7.05897112 0 10 C-0.37125 10.7425 -0.7425 11.485 -1.125 12.25 C-1.41375 12.8275 -1.7025 13.405 -2 14 C-2.66 14 -3.32 14 -4 14 C-4 14.99 -4 15.98 -4 17 C-4.66 17 -5.32 17 -6 17 C-5.938125 17.763125 -5.87625 18.52625 -5.8125 19.3125 C-6 22 -6 22 -7.3125 23.5625 C-7.869375 24.036875 -8.42625 24.51125 -9 25 C-9.515625 25.721875 -10.03125 26.44375 -10.5625 27.1875 C-11.036875 27.785625 -11.51125 28.38375 -12 29 C-12.66 29 -13.32 29 -14 29 C-14 29.66 -14 30.32 -14 31 C-13.34 31.33 -12.68 31.66 -12 32 C-13.11375 32.53625 -14.2275 33.0725 -15.375 33.625 C-19.21638839 35.78048848 -19.80511349 37.77194005 -21 42 C-22.9375 43.125 -22.9375 43.125 -25 44 C-25.433125 44.61875 -25.86625 45.2375 -26.3125 45.875 C-28.03030932 48.03816729 -29.24147671 48.82401376 -31.625 50.125 C-35.03800757 51.60544521 -35.03800757 51.60544521 -36 54 C-36.99 54 -37.98 54 -39 54 C-39 54.66 -39 55.32 -39 56 C-55.79573805 65.23466736 -55.79573805 65.23466736 -61 66 C-61 66.66 -61 67.32 -61 68 C-61.66 67.67 -62.32 67.34 -63 67 C-63 66.01 -63 65.02 -63 64 C-61.90300781 63.45730469 -60.80601562 62.91460938 -59.67578125 62.35546875 C-58.22130061 61.6329203 -56.7668765 60.91025804 -55.3125 60.1875 C-54.59126953 59.83107422 -53.87003906 59.47464844 -53.12695312 59.10742188 C-50.04436362 57.573165 -47.04926524 56.02998465 -44.10546875 54.23828125 C-42 53 -42 53 -40 53 C-40 52.34 -40 51.68 -40 51 C-38.02 50.505 -38.02 50.505 -36 50 C-36 49.34 -36 48.68 -36 48 C-34.54211585 46.78111325 -33.0312314 45.62536284 -31.5 44.5 C-26.70322838 40.79340375 -23.17305207 36.7764479 -19.59375 31.90625 C-19.0678125 31.2771875 -18.541875 30.648125 -18 30 C-17.34 30 -16.68 30 -16 30 C-15.75894531 29.48566406 -15.51789062 28.97132813 -15.26953125 28.44140625 C-13.91853419 25.84333498 -12.41147344 23.36413342 -10.87670898 20.87133789 C-6.72066375 14.112965 -3.04006503 7.34809689 0 0 Z " fill="#801DF3" transform="translate(652,462)"/>
<path d="M0 0 C0.66 0 1.32 0 2 0 C2.18343608 10.66642477 2.34757706 21.33309025 2.5 32 C2.51187725 32.83055153 2.5237545 33.66110306 2.53599167 34.51682281 C3.02710576 69.302665 3.0860697 104.08611937 3.0625 138.875 C3.06164398 140.1475061 3.06078796 141.42001221 3.05990601 142.7310791 C3.04851885 158.48740023 3.02844749 174.24370074 3 190 C2.67 190 2.34 190 2 190 C1.65445271 172.02105524 1.32158943 154.04188884 1 136.0625 C0.98810292 135.3982251 0.97620584 134.7339502 0.96394825 134.04954576 C0.33870619 99.09618793 -0.20304713 64.14773526 -0.125 29.1875 C-0.12328796 28.41473347 -0.12157593 27.64196693 -0.11981201 26.84578323 C-0.09839622 17.89708432 -0.0606997 8.94852659 0 0 Z " fill="#D524FE" transform="translate(373,410)"/>
<path d="M0 0 C0.33 0 0.66 0 1 0 C1.01030746 0.78704819 1.02061493 1.57409637 1.03123474 2.38499451 C1.12904188 9.78698107 1.23153186 17.18888068 1.33933926 24.59072781 C1.39460294 28.39647405 1.44802829 32.20222792 1.49731445 36.00805664 C1.54490741 39.67799335 1.59724809 43.34783391 1.65294075 47.01765633 C1.67338737 48.42072227 1.69209657 49.8238146 1.70907402 51.2269268 C1.73306687 53.18576926 1.76370199 55.14452701 1.79467773 57.10327148 C1.81022202 58.22023911 1.8257663 59.33720673 1.84178162 60.48802185 C1.71819038 62.93861001 1.71819038 62.93861001 3 64 C4.74133813 76.38284896 3.75564577 88.94596001 3.10766602 101.37548828 C2.70503842 106.34308981 2.70503842 106.34308981 4 111 C3.835 112.051875 3.67 113.10375 3.5 114.1875 C2.98742454 118.09588788 3.42622173 121.12699667 4 125 C3.68728004 126.67065709 3.35100444 128.33696519 3 130 C2.78640412 132.101678 2.59952167 134.2062183 2.4375 136.3125 C2.31181641 137.91544922 2.31181641 137.91544922 2.18359375 139.55078125 C2.12300781 140.35902344 2.06242187 141.16726563 2 142 C1.67 142 1.34 142 1 142 C-0.38403488 114.02393619 -0.11775848 86.02235109 -0.06866455 58.02111816 C-0.05828858 51.46330084 -0.05383687 44.90547948 -0.04882812 38.34765625 C-0.03822132 25.5650941 -0.02144038 12.78254835 0 0 Z " fill="#831DE4" transform="translate(286,594)"/>
<path d="M0 0 C7.06854168 -0.10687576 13.70407495 0.60826391 20.64892578 1.9074707 C21.61185547 2.07311523 22.57478516 2.23875977 23.56689453 2.40942383 C29.54898295 3.48490105 35.19539366 4.99464765 40.89892578 7.0949707 C40.56892578 7.7549707 40.23892578 8.4149707 39.89892578 9.0949707 C38.08599489 8.95459549 36.27358148 8.80752181 34.46142578 8.6574707 C32.94742188 8.5356543 32.94742188 8.5356543 31.40283203 8.41137695 C28.89892578 8.0949707 28.89892578 8.0949707 27.89892578 7.0949707 C25.20809706 7.27132523 22.57041133 7.71332991 19.89892578 8.0949707 C20.22892578 7.1049707 20.55892578 6.1149707 20.89892578 5.0949707 C16.44392578 5.5899707 16.44392578 5.5899707 11.89892578 6.0949707 C11.40392578 5.1049707 11.40392578 5.1049707 10.89892578 4.0949707 C10.23892578 4.7549707 9.57892578 5.4149707 8.89892578 6.0949707 C8.13580078 5.7443457 7.37267578 5.3937207 6.58642578 5.0324707 C3.85133199 3.77136187 3.85133199 3.77136187 0.89892578 5.0949707 C0.23892578 4.4349707 -0.42107422 3.7749707 -1.10107422 3.0949707 C-2.96859547 2.81079279 -2.96859547 2.81079279 -5.11669922 2.88378906 C-6.35939575 2.88885719 -6.35939575 2.88885719 -7.62719727 2.89402771 C-8.97551636 2.91421715 -8.97551636 2.91421715 -10.35107422 2.93481445 C-11.27895752 2.94001602 -12.20684082 2.94521759 -13.1628418 2.95057678 C-16.14240954 2.96842907 -19.12163777 2.99954743 -22.10107422 3.0324707 C-25.05191535 3.06023594 -28.00269999 3.08500304 -30.95361328 3.10365295 C-32.79024801 3.11574284 -34.6268585 3.13317462 -36.46337891 3.15696716 C-42.40427914 3.20241679 -48.2025144 2.79890168 -54.10107422 2.0949707 C-54.10107422 1.7649707 -54.10107422 1.4349707 -54.10107422 1.0949707 C-47.21838143 0.95066656 -40.33564688 0.80849214 -33.45288086 0.66772461 C-31.11660796 0.61970024 -28.78034464 0.57120725 -26.4440918 0.5222168 C-19.89915307 0.38513537 -13.35418042 0.25682611 -6.80877686 0.14395142 C-4.53894097 0.10289145 -2.26957646 0.05294292 0 0 Z " fill="#EC2DFD" transform="translate(565.10107421875,223.905029296875)"/>
<path d="M0 0 C1.22121552 -0.00095673 2.44243103 -0.00191345 3.70065308 -0.00289917 C6.27423148 -0.00357785 8.84781163 -0.00174536 11.42138672 0.00244141 C15.36039057 0.00780325 19.29928088 0.00248105 23.23828125 -0.00390625 C25.74218775 -0.00324559 28.24609418 -0.00196469 30.75 0 C31.92716583 -0.00202423 33.10433167 -0.00404846 34.31716919 -0.00613403 C35.4153598 -0.00298187 36.51355042 0.00017029 37.64501953 0.00341797 C38.60763702 0.00421356 39.57025452 0.00500916 40.56204224 0.00582886 C43.21735875 0.13163613 45.65433182 0.54076848 48.2421875 1.1328125 C47.9121875 2.1228125 47.5821875 3.1128125 47.2421875 4.1328125 C46.2521875 3.6378125 46.2521875 3.6378125 45.2421875 3.1328125 C43.33378549 3.0313877 41.42182515 2.9944139 39.51074219 2.98754883 C37.7081192 2.97797905 37.7081192 2.97797905 35.86907959 2.96821594 C34.56392395 2.96710312 33.25876831 2.9659903 31.9140625 2.96484375 C30.56365931 2.96163038 29.21325646 2.95826625 27.862854 2.95475769 C25.02819004 2.94876379 22.19355657 2.94691793 19.35888672 2.94750977 C15.73637273 2.94761111 12.11405595 2.93398852 8.49158859 2.91673756 C5.69994215 2.9055841 2.90834277 2.90359162 0.11667633 2.90411949 C-1.86520338 2.90237304 -3.84706839 2.89154862 -5.82891846 2.88056946 C-7.04327576 2.88364609 -8.25763306 2.88672272 -9.50878906 2.88989258 C-11.10524261 2.88775505 -11.10524261 2.88775505 -12.73394775 2.88557434 C-16.0427511 3.15610974 -18.69512189 3.86084403 -21.7578125 5.1328125 C-24.54096819 9.56644424 -24.16143012 14.87228059 -24.32421875 19.95703125 C-24.40298856 21.68654219 -24.57307481 23.41139309 -24.7578125 25.1328125 C-25.4178125 25.4628125 -26.0778125 25.7928125 -26.7578125 26.1328125 C-26.86653217 23.58998016 -26.94543651 21.05186162 -27.0078125 18.5078125 C-27.04132812 17.79496094 -27.07484375 17.08210937 -27.109375 16.34765625 C-27.20547147 11.11039867 -26.11810896 8.34429937 -22.7578125 4.1328125 C-22.3246875 3.5346875 -21.8915625 2.9365625 -21.4453125 2.3203125 C-15.99609454 -1.51432236 -6.3063752 -0.01088174 0 0 Z " fill="#7D21F5" transform="translate(540.7578125,702.8671875)"/>
<path d="M0 0 C1.485 0.99 1.485 0.99 3 2 C3 2.66 3 3.32 3 4 C3.99 4.33 4.98 4.66 6 5 C7.33105469 6.40771484 7.33105469 6.40771484 8.671875 8.2109375 C9.1680835 8.87343506 9.66429199 9.53593262 10.17553711 10.21850586 C10.95489624 11.28597046 10.95489624 11.28597046 11.75 12.375 C12.55352905 13.46276733 12.55352905 13.46276733 13.37329102 14.57250977 C19.06262002 22.33975546 24.21961269 30.34245377 28.80859375 38.80859375 C29.63666323 40.33169859 30.48456234 41.84412164 31.34765625 43.34765625 C37.43123269 53.97174455 37.43123269 53.97174455 36.5390625 58.16796875 C36.36117187 58.77253906 36.18328125 59.37710938 36 60 C35.52691406 59.030625 35.05382812 58.06125 34.56640625 57.0625 C25.27127878 38.15057314 15.03683067 21.06544375 1.36328125 4.953125 C0 3 0 3 0 0 Z " fill="#C820FE" transform="translate(701,288)"/>
<path d="M0 0 C0.99 1.485 0.99 1.485 2 3 C3.73639824 5.8871725 3.73639824 5.8871725 7 8 C11.416435 8.72259595 15.78894437 8.60426965 20.25390625 8.5234375 C21.54691147 8.51873444 22.83991669 8.51403137 24.17210388 8.50918579 C27.60198096 8.49580519 31.03081553 8.45156052 34.46032715 8.40161133 C37.25772528 8.36619917 40.05501862 8.35312851 42.85260105 8.34119225 C48.63829129 8.3155539 54.42403618 8.27265167 60.20922852 8.19287109 C61.7454763 8.17358047 61.7454763 8.17358047 63.3127594 8.15390015 C65.69338053 8.01756031 67.72288383 7.67830075 70 7 C70 7.66 70 8.32 70 9 C66.28531896 10.70329046 63.37085877 11.25556288 59.29516602 11.2746582 C57.61300743 11.28895622 57.61300743 11.28895622 55.89686584 11.30354309 C54.09360085 11.30217598 54.09360085 11.30217598 52.25390625 11.30078125 C50.38810158 11.30720894 50.38810158 11.30720894 48.48460388 11.31376648 C45.18413148 11.32097238 41.88384184 11.31789045 38.58337402 11.31219482 C36.56580382 11.3124995 34.54852722 11.32253734 32.53100586 11.33618164 C28.64683278 11.36068521 24.76314701 11.36483674 20.87890625 11.36328125 C19.0786776 11.37709587 19.0786776 11.37709587 17.24208069 11.39118958 C6.64417954 11.33249082 6.64417954 11.33249082 2 8 C-0.1519437 4.77208445 -0.20086443 3.71599191 0 0 Z " fill="#7720F7" transform="translate(515,771)"/>
<path d="M0 0 C0.33 0 0.66 0 1 0 C1.33 3.63 1.66 7.26 2 11 C2.33 11 2.66 11 3 11 C3.0493933 17.06891692 3.08571643 23.13771713 3.10986328 29.20678711 C3.11992835 31.271912 3.13358154 33.33702263 3.15087891 35.40209961 C3.17510493 38.36836264 3.18647797 41.33443744 3.1953125 44.30078125 C3.20563507 45.2258699 3.21595764 46.15095856 3.22659302 47.1040802 C3.22674408 47.96474594 3.22689514 48.82541168 3.22705078 49.7121582 C3.231492 50.46938675 3.23593323 51.2266153 3.24050903 52.00679016 C3 54 3 54 1 57 C-0.01781528 53.94655415 -0.12097241 51.89716208 -0.11352539 48.70239258 C-0.11341209 47.08105156 -0.11341209 47.08105156 -0.11329651 45.42695618 C-0.10813522 44.26125595 -0.10297394 43.09555573 -0.09765625 41.89453125 C-0.0962413 40.70018967 -0.09482635 39.50584808 -0.09336853 38.27531433 C-0.0877635 34.45435092 -0.07521011 30.63344575 -0.0625 26.8125 C-0.05748565 24.22461022 -0.05292263 21.63671952 -0.04882812 19.04882812 C-0.03779243 12.69919882 -0.02104936 6.34960357 0 0 Z " fill="#6E1DE1" transform="translate(513,717)"/>
<path d="M0 0 C0.66 0 1.32 0 2 0 C2.24810085 8.64102528 2.4670424 17.28211718 2.65021229 25.92473888 C2.73617955 29.93918937 2.83165187 33.95291457 2.94995117 37.96655273 C3.06404959 41.85015559 3.15173758 45.73358875 3.22220421 49.61821938 C3.25333351 51.08976755 3.293497 52.56115717 3.34345436 54.03218651 C3.679236 64.15518376 2.37719207 71.81115526 -2 81 C-2.99 80.67 -3.98 80.34 -5 80 C-4.06264468 77.1209801 -3.12227222 74.28769934 -1.9375 71.5 C-0.09990529 66.59974744 0.12395092 61.72756037 0.11352539 56.53564453 C0.11344986 55.27479034 0.11337433 54.01393616 0.11329651 52.71487427 C0.10819109 51.3541866 0.10297511 49.99349935 0.09765625 48.6328125 C0.09578912 47.22891287 0.09436661 45.82501258 0.09336853 44.42111206 C0.08956658 40.74192478 0.07975633 37.06277752 0.06866455 33.38360596 C0.05840031 29.62293031 0.0538602 25.86224814 0.04882812 22.1015625 C0.03813179 14.73435683 0.02108352 7.36718404 0 0 Z " fill="#6D1FD6" transform="translate(373,663)"/>
<path d="M0 0 C5.05991754 -0.40539399 7.67336947 0.58529951 11.875 3.375 C12.84179688 4.00148438 13.80859375 4.62796875 14.8046875 5.2734375 C15.89136719 6.12808594 15.89136719 6.12808594 17 7 C17 7.66 17 8.32 17 9 C17.70511719 9.2371875 18.41023437 9.474375 19.13671875 9.71875 C22.50286868 11.22502173 24.96983173 13.15584517 27.8125 15.5 C28.78832031 16.2940625 29.76414062 17.088125 30.76953125 17.90625 C31.50558594 18.5971875 32.24164062 19.288125 33 20 C33 20.66 33 21.32 33 22 C33.57363281 22.25007813 34.14726563 22.50015625 34.73828125 22.7578125 C37.31489181 24.17294576 39.10491296 25.80413484 41.1875 27.875 C41.88230469 28.55304688 42.57710937 29.23109375 43.29296875 29.9296875 C45.0254452 32.03086032 45.60055703 33.34102145 46 36 C44.97916667 35.125 43.95833333 34.25 42.9375 33.375 C42.30328125 32.83359375 41.6690625 32.2921875 41.015625 31.734375 C39.6838056 30.58839086 38.36064726 29.43225477 37.046875 28.265625 C36.43328125 27.72421875 35.8196875 27.1828125 35.1875 26.625 C34.62417969 26.12226563 34.06085937 25.61953125 33.48046875 25.1015625 C32.04012752 23.80101753 32.04012752 23.80101753 30 24 C29.525625 23.195625 29.05125 22.39125 28.5625 21.5625 C27.20016328 18.7081924 27.20016328 18.7081924 24 18 C22.33333333 16.33333333 20.66666667 14.66666667 19 13 C14.53074971 9.15358652 14.53074971 9.15358652 9 8 C8.67 7.01 8.34 6.02 8 5 C6.13977928 3.76722873 6.13977928 3.76722873 3.9375 2.8125 C3.20402344 2.46832031 2.47054687 2.12414062 1.71484375 1.76953125 C1.14894531 1.51558594 0.58304688 1.26164063 0 1 C0 0.67 0 0.34 0 0 Z " fill="#DB23FE" transform="translate(655,254)"/>
<path d="M0 0 C0.33 0 0.66 0 1 0 C1.02505615 0.67466309 1.0501123 1.34932617 1.07592773 2.04443359 C1.1932631 5.15475193 1.31535527 8.26486696 1.4375 11.375 C1.47681641 12.43589844 1.51613281 13.49679687 1.55664062 14.58984375 C1.78617069 20.34575162 2.13701761 26.04503887 2.80102539 31.76806641 C3 34 3 34 2.96655273 36.65771484 C2.83071978 39.02343715 2.83071978 39.02343715 4 41 C3.835 42.051875 3.67 43.10375 3.5 44.1875 C2.98742454 48.09588788 3.42622173 51.12699667 4 55 C3.68728004 56.67065709 3.35100444 58.33696519 3 60 C2.78640412 62.101678 2.59952167 64.2062183 2.4375 66.3125 C2.31181641 67.91544922 2.31181641 67.91544922 2.18359375 69.55078125 C2.12300781 70.35902344 2.06242187 71.16726563 2 72 C1.67 72 1.34 72 1 72 C-0.05569423 47.99418697 -0.11281583 24.02456419 0 0 Z " fill="#721ED7" transform="translate(286,664)"/>
<path d="M0 0 C-1.31245521 2.99327684 -2.57452057 4.75439486 -5.16796875 6.734375 C-5.80702148 7.22252686 -6.44607422 7.71067871 -7.10449219 8.21362305 C-7.79188477 8.72062744 -8.47927734 9.22763184 -9.1875 9.75 C-9.89422852 10.2756958 -10.60095703 10.8013916 -11.32910156 11.34301758 C-18.74868524 16.73795476 -27.81172304 23.29425552 -37 25 C-37 24.01 -37 23.02 -37 22 C-36.01 22 -35.02 22 -34 22 C-33.67 21.34 -33.34 20.68 -33 20 C-31.12192438 19.02742512 -29.23982824 18.06164074 -27.3359375 17.140625 C-24.90427835 15.95325966 -22.50885956 14.71814947 -20.125 13.4375 C-19.38507813 13.04433594 -18.64515625 12.65117188 -17.8828125 12.24609375 C-15.70761834 10.98145073 -15.70761834 10.98145073 -14 8 C-12.16015625 6.71875 -12.16015625 6.71875 -10.0625 5.5 C-7.89339732 4.23502797 -6.16324704 3.17261034 -4.43359375 1.34375 C-3 0 -3 0 0 0 Z " fill="#621FC8" transform="translate(352,768)"/>
<path d="M0 0 C-9.50161509 6.33441006 -28.72957914 3.11025322 -39.875 3.0625 C-41.93098849 3.05747274 -43.98697817 3.05291201 -46.04296875 3.04882812 C-51.02867592 3.03792482 -56.0143244 3.02072847 -61 3 C-61 2.67 -61 2.34 -61 2 C-59.78098999 1.96241577 -59.78098999 1.96241577 -58.53735352 1.92407227 C-54.87889248 1.80850882 -51.22071472 1.68560416 -47.5625 1.5625 C-46.28310547 1.52318359 -45.00371094 1.48386719 -43.68554688 1.44335938 C-41.86313477 1.38051758 -41.86313477 1.38051758 -40.00390625 1.31640625 C-38.87799072 1.27974854 -37.7520752 1.24309082 -36.59204102 1.20532227 C-34.07146559 1.28781955 -34.07146559 1.28781955 -33 0 C-29.18021227 -0.38867112 -25.33561364 -0.47157545 -21.5 -0.625 C-19.90285156 -0.70234375 -19.90285156 -0.70234375 -18.2734375 -0.78125 C-12.04410039 -1.04144344 -6.17515993 -0.86919268 0 0 Z " fill="#7624FD" transform="translate(578,620)"/>
<path d="M0 0 C0.33 0 0.66 0 1 0 C1.65492246 2.76895124 2.29899554 5.5397557 2.9375 8.3125 C3.11990234 9.07884766 3.30230469 9.84519531 3.49023438 10.63476562 C5.84397859 20.94844483 6.14644869 31.14225312 6.0625 41.6875 C6.05798828 42.78255859 6.05347656 43.87761719 6.04882812 45.00585938 C6.03719156 47.67063309 6.02084564 50.33528517 6 53 C5.67 53 5.34 53 5 53 C4.94392578 51.36417969 4.94392578 51.36417969 4.88671875 49.6953125 C4.43004887 38.59997167 3.06656816 27.90563957 1 17 C0.8453125 16.02675781 0.690625 15.05351562 0.53125 14.05078125 C0.3559375 13.37402344 0.180625 12.69726562 0 12 C-0.66 11.67 -1.32 11.34 -2 11 C-1.34 9.35 -0.68 7.7 0 6 C-0.99 6 -1.98 6 -3 6 C-2 4 -1 2 0 0 Z " fill="#9321FB" transform="translate(747,371)"/>
<path d="M0 0 C2.6816312 1.98059563 5.34570154 3.98292482 8 6 C8.56976562 6.42925781 9.13953125 6.85851562 9.7265625 7.30078125 C13.34655249 10.15036311 15.49190681 13.17527378 18 17 C20.26711115 20.05293824 22.57189218 23.07480645 24.87890625 26.09765625 C30 33.10497238 30 33.10497238 30 36 C26.15521125 34.54163185 24.8177085 32.63541701 23 29 C22.3125 26.6875 22.3125 26.6875 22 25 C21.34 25 20.68 25 20 25 C18.73078387 23.37921697 17.53497379 21.7006787 16.375 20 C12.6715002 14.77073894 8.65045012 10.38272698 4 6 C2.99636147 5.00365182 1.99578361 4.00419868 1 3 C0.34 2.34 -0.32 1.68 -1 1 C-0.67 0.67 -0.34 0.34 0 0 Z " fill="#CC1FFE" transform="translate(618,339)"/>
<path d="M0 0 C0.7734375 0.3403125 0.7734375 0.3403125 1.5625 0.6875 C1.2325 1.6775 0.9025 2.6675 0.5625 3.6875 C-1.625 4.75 -1.625 4.75 -4.4375 5.6875 C-5.46875 6.079375 -6.5 6.47125 -7.5625 6.875 C-10.4375 7.6875 -10.4375 7.6875 -13.4375 6.6875 C-16.69109779 7.10451654 -19.88866284 7.71326778 -23.11328125 8.3125 C-26.48889125 8.69329737 -29.13408804 8.40715404 -32.4375 7.6875 C-32.4375 7.3575 -32.4375 7.0275 -32.4375 6.6875 C-31.77741943 6.58203857 -31.11733887 6.47657715 -30.43725586 6.36791992 C-27.41491228 5.87960755 -24.39502833 5.37742456 -21.375 4.875 C-19.81749023 4.6265332 -19.81749023 4.6265332 -18.22851562 4.37304688 C-12.82195694 3.46337192 -5.06861322 -0.64982221 0 0 Z " fill="#7B20F1" transform="translate(585.4375,528.3125)"/>
<path d="M0 0 C0.99 0.66 1.98 1.32 3 2 C2.59007812 2.60328125 2.18015625 3.2065625 1.7578125 3.828125 C1.21898437 4.62734375 0.68015625 5.4265625 0.125 6.25 C-0.40867187 7.03890625 -0.94234375 7.8278125 -1.4921875 8.640625 C-2.81822015 10.71555692 -3.94928175 12.77614972 -5 15 C-5.66 15 -6.32 15 -7 15 C-7.309375 15.94875 -7.61875 16.8975 -7.9375 17.875 C-9 21 -9 21 -10 23 C-10.66 23 -11.32 23 -12 23 C-12.12375 23.639375 -12.2475 24.27875 -12.375 24.9375 C-12.58125 25.618125 -12.7875 26.29875 -13 27 C-13.66 27.33 -14.32 27.66 -15 28 C-15.66 27.34 -16.32 26.68 -17 26 C-16.34 26 -15.68 26 -15 26 C-15.33 25.01 -15.66 24.02 -16 23 C-15.21625 22.278125 -14.4325 21.55625 -13.625 20.8125 C-11.12613037 18.13513968 -10.21426991 16.3625936 -9 13 C-8.34 12.67 -7.68 12.34 -7 12 C-7.33 11.34 -7.66 10.68 -8 10 C-6.68 9.67 -5.36 9.34 -4 9 C-4.12375 7.88625 -4.12375 7.88625 -4.25 6.75 C-3.92894816 3.21842973 -2.64734383 2.23369636 0 0 Z " fill="#611EC7" transform="translate(452,657)"/>
<path d="M0 0 C0.33 0 0.66 0 1 0 C1.33 20.79 1.66 41.58 2 63 C2.99 62.01 3.98 61.02 5 60 C4.75 62.3125 4.75 62.3125 4 65 C2.68 65.99 1.36 66.98 0 68 C0 45.56 0 23.12 0 0 Z " fill="#6522C1" transform="translate(408,662)"/>
<path d="M0 0 C0.9192627 -0.00451172 1.83852539 -0.00902344 2.78564453 -0.01367188 C7.73539278 -0.00278334 12.43329246 0.28398748 17.3125 1.125 C17.8075 2.61 17.8075 2.61 18.3125 4.125 C17.02158447 3.96652588 15.73066895 3.80805176 14.40063477 3.64477539 C9.56409996 3.10895643 4.76490545 2.90934125 -0.09765625 2.80859375 C-0.95056747 2.78781265 -1.8034787 2.76703156 -2.68223572 2.74562073 C-5.37141911 2.68092801 -8.0606889 2.621619 -10.75 2.5625 C-12.58789909 2.51923816 -14.42578986 2.47562161 -16.26367188 2.43164062 C-20.73819571 2.32533066 -25.21280527 2.22384438 -29.6875 2.125 C-29.6875 1.795 -29.6875 1.465 -29.6875 1.125 C-19.78991848 0.44072276 -9.92290132 0.02008346 0 0 Z " fill="#F232FF" transform="translate(541.6875,311.875)"/>
<path d="M0 0 C0 8.80050189 -8.62977343 16.74058559 -14 23 C-14.99 22.67 -15.98 22.34 -17 22 C-15.7260411 19.96166576 -14.38938077 17.96147874 -13 16 C-12.34 16 -11.68 16 -11 16 C-10.71125 15.278125 -10.4225 14.55625 -10.125 13.8125 C-9.08333333 11.20833333 -8.04166667 8.60416667 -7 6 C-6.01 6 -5.02 6 -4 6 C-4 5.01 -4 4.02 -4 3 C-3.34 3 -2.68 3 -2 3 C-2 2.34 -2 1.68 -2 1 C-1.34 0.67 -0.68 0.34 0 0 Z " fill="#661DD3" transform="translate(369,744)"/>
<path d="M0 0 C1.98 0 3.96 0 6 0 C6.33 0.66 6.66 1.32 7 2 C-2.43827872 5.80842826 -10.87824748 6.13698612 -21 6 C-20.67 5.01 -20.34 4.02 -20 3 C-18.83984375 3.03480469 -18.83984375 3.03480469 -17.65625 3.0703125 C-11.36674562 3.17928906 -6.01659801 2.85126093 0 1 C0 0.67 0 0.34 0 0 Z " fill="#5D20B9" transform="translate(308,791)"/>
<path d="M0 0 C3.37227042 2.69781634 4.56631831 6.33926422 6.0625 10.25 C6.31837891 10.89324219 6.57425781 11.53648437 6.83789062 12.19921875 C11.37603605 23.79540525 11.37603605 23.79540525 11 30 C7.86948257 27.72326005 7.45783847 25.16117754 6.66796875 21.515625 C5.53630253 17.25367737 3.78482125 13.22629778 2.12109375 9.1484375 C1.02941223 6.08260021 0.43016172 3.21896297 0 0 Z " fill="#B51EFE" transform="translate(648,376)"/>
<path d="M0 0 C8.63932339 1.07991542 16.36721989 6.68637876 23 12 C23.99 13.485 23.99 13.485 25 15 C21.79411711 14.40241218 19.98825679 13.39150403 17.5 11.3125 C13.14461585 7.89570525 8.44463786 5.62628947 3.44140625 3.296875 C1 2 1 2 0 0 Z " fill="#E822FF" transform="translate(593,325)"/>
<path d="M0 0 C2.16962726 3.25444089 2.24814289 4.16960076 2.23046875 7.9296875 C2.22853516 8.89003906 2.22660156 9.85039062 2.22460938 10.83984375 C2.21236328 11.84144531 2.20011719 12.84304688 2.1875 13.875 C2.18685547 14.86886719 2.18621094 15.86273438 2.18554688 16.88671875 C2.15827658 21.41358772 1.9972331 25.56840551 1 30 C-1.16962726 26.74555911 -1.24814289 25.83039924 -1.23046875 22.0703125 C-1.22853516 21.10996094 -1.22660156 20.14960938 -1.22460938 19.16015625 C-1.21236328 18.15855469 -1.20011719 17.15695312 -1.1875 16.125 C-1.18685547 15.13113281 -1.18621094 14.13726562 -1.18554688 13.11328125 C-1.15827658 8.58641228 -0.9972331 4.43159449 0 0 Z " fill="#B025FE" transform="translate(659,409)"/>
<path d="M0 0 C1.79153386 2.6873008 3.40258294 5.42646678 4.98828125 8.23828125 C5.82902331 9.70227611 6.72088067 11.13677337 7.625 12.5625 C9.54762915 15.97079713 11.36815604 19.22586872 10.546875 23.18359375 C10.36640625 23.78300781 10.1859375 24.38242187 10 25 C7.33333333 19.66666667 4.66666667 14.33333333 2 9 C1.63245605 8.31647461 1.26491211 7.63294922 0.88623047 6.92871094 C-0.22017693 4.52082707 -0.14548279 2.61869022 0 0 Z " fill="#B120FD" transform="translate(727,323)"/>
<path d="M0 0 C0.66 0.99 1.32 1.98 2 3 C1.67 3.66 1.34 4.32 1 5 C0.34 5 -0.32 5 -1 5 C-1.0825 5.556875 -1.165 6.11375 -1.25 6.6875 C-2.22610013 9.69714206 -3.95188814 11.62154752 -6 14 C-6.80967438 11.08517222 -7.21845993 9.53886783 -6.0625 6.6875 C-5.711875 6.130625 -5.36125 5.57375 -5 5 C-4.34 5 -3.68 5 -3 5 C-2.690625 4.360625 -2.38125 3.72125 -2.0625 3.0625 C-1 1 -1 1 0 0 Z " fill="#6E1FDD" transform="translate(461,643)"/>
<path d="M0 0 C-2.65222532 2.65222532 -4.56755082 2.62840669 -8.25 3.1875 C-9.36890625 3.36667969 -10.4878125 3.54585937 -11.640625 3.73046875 C-14.98904448 3.99912101 -17.72749327 3.69912644 -21 3 C-21 2.67 -21 2.34 -21 2 C-18.43944242 1.46742809 -15.87733671 0.94868156 -13.3125 0.4375 C-12.2306543 0.21030273 -12.2306543 0.21030273 -11.12695312 -0.02148438 C-7.11115237 -0.80997493 -4.01708115 -1.19640878 0 0 Z " fill="#9020FC" transform="translate(574,533)"/>
<path d="M0 0 C0.99 0 1.98 0 3 0 C1.65846062 5.00028314 -0.48370003 9.19067503 -4 13 C-4.66 13 -5.32 13 -6 13 C-4.58707905 8.1725201 -2.57025846 4.2837641 0 0 Z " fill="#601EBA" transform="translate(434,685)"/>
<path d="M0 0 C3.3738884 0.61132382 6.54173969 1.87849917 9.75 3.0625 C11.22726562 3.60583984 11.22726562 3.60583984 12.734375 4.16015625 C13.48203125 4.43730469 14.2296875 4.71445312 15 5 C12 7 12 7 9.1171875 6.64453125 C8.04726563 6.36996094 6.97734375 6.09539062 5.875 5.8125 C4.79992187 5.55082031 3.72484375 5.28914063 2.6171875 5.01953125 C1.32167969 4.51486328 1.32167969 4.51486328 0 4 C-0.33 3.01 -0.66 2.02 -1 1 C-0.67 0.67 -0.34 0.34 0 0 Z " fill="#FA2EFF" transform="translate(560,312)"/>
<path d="M0 0 C0.99 0.66 1.98 1.32 3 2 C2.04454634 3.46022163 1.08553322 4.91811468 0.125 6.375 C-0.40867187 7.18710937 -0.94234375 7.99921875 -1.4921875 8.8359375 C-3 11 -3 11 -5 13 C-4.64989059 4.80743982 -4.64989059 4.80743982 -1.9375 1.4375 C-1.298125 0.963125 -0.65875 0.48875 0 0 Z " fill="#6E22D8" transform="translate(452,657)"/>
<path d="M0 0 C2.35953094 2.35953094 2.49141413 3.77895617 3 7 C3.66 6.67 4.32 6.34 5 6 C5.33 9.3 5.66 12.6 6 16 C5.67 15.01 5.34 14.02 5 13 C4.34 13 3.68 13 3 13 C1.50178941 9.62902617 1 7.79557881 1 4 C0.34 3.67 -0.32 3.34 -1 3 C-0.67 2.01 -0.34 1.02 0 0 Z " fill="#7E1EEC" transform="translate(746,379)"/>
<path d="M0 0 C4.71782611 5.66139133 6.28817083 8.5075585 6 16 C3.63224279 13.63224279 3.00103504 11.70288662 1.875 8.5625 C1.52179687 7.59441406 1.16859375 6.62632812 0.8046875 5.62890625 C0 3 0 3 0 0 Z " fill="#A620FE" transform="translate(738,349)"/>
<path d="M0 0 C2.33486745 3.64823039 2.30399283 6.74410043 2 11 C1 13.4375 1 13.4375 0 15 C0 13.02 0 11.04 0 9 C-0.66 8.67 -1.32 8.34 -2 8 C-1.34 5.36 -0.68 2.72 0 0 Z " fill="#6A1EE9" transform="translate(750,449)"/>
<path d="M0 0 C-1.51671964 4.55015893 -5.16891053 6.50057264 -9 9 C-9.33 8.01 -9.66 7.02 -10 6 C-8.90398831 4.99106869 -7.79786082 3.99311775 -6.6875 3 C-6.07261719 2.443125 -5.45773437 1.88625 -4.82421875 1.3125 C-3 0 -3 0 0 0 Z " fill="#6B1CD9" transform="translate(352,768)"/>
<path d="M0 0 C0.33 0.66 0.66 1.32 1 2 C1.763125 2.28875 2.52625 2.5775 3.3125 2.875 C6.28908843 4.12101376 7.86007284 5.62230316 10 8 C5.62548685 8 4.99527997 7.59622397 1.75 5 C1.04359375 4.443125 0.3371875 3.88625 -0.390625 3.3125 C-0.92171875 2.879375 -1.4528125 2.44625 -2 2 C-1.34 1.34 -0.68 0.68 0 0 Z " fill="#E820FE" transform="translate(671,261)"/>
<path d="M0 0 C0.33 0 0.66 0 1 0 C1.78530425 8.98737084 1.78530425 8.98737084 -1.375 13.0625 C-4 15 -4 15 -6 16 C-6 15.01 -6 14.02 -6 13 C-5.01 12.34 -4.02 11.68 -3 11 C-2.67 10.01 -2.34 9.02 -2 8 C-1.34 8 -0.68 8 0 8 C0 5.36 0 2.72 0 0 Z " fill="#671DF7" transform="translate(655,684)"/>
<path d="M0 0 C2 3 2 3 1.8125 5.5 C0.93362125 8.2042423 0.005808 9.07776734 -2 11 C-2.71447643 13.10332891 -2.71447643 13.10332891 -3 15 C-3.66 14.67 -4.32 14.34 -5 14 C-4.29288052 10.32297872 -2.66572483 7.33144966 -1 4 C-0.31363375 1.76474965 -0.31363375 1.76474965 0 0 Z " fill="#641EE1" transform="translate(744,478)"/>
<path d="M0 0 C4.95 0.99 4.95 0.99 10 2 C9.01 2.99 8.02 3.98 7 5 C3.8125 4.6875 3.8125 4.6875 1 4 C0.67 2.68 0.34 1.36 0 0 Z " fill="#CA26FC" transform="translate(610,235)"/>
<path d="M0 0 C0 2 0 2 -2.375 4.625 C-5 7 -5 7 -7 7 C-6.6875 4.625 -6.6875 4.625 -6 2 C-3 0 -3 0 0 0 Z " fill="#6E1BF8" transform="translate(610,648)"/>
<path d="M0 0 C0.99 0.33 1.98 0.66 3 1 C1 4 1 4 -0.9453125 4.51171875 C-1.66460938 4.56972656 -2.38390625 4.62773438 -3.125 4.6875 C-5.043125 4.8421875 -5.043125 4.8421875 -7 5 C-6.67 4.01 -6.34 3.02 -6 2 C-4.35 2.33 -2.7 2.66 -1 3 C-0.67 2.01 -0.34 1.02 0 0 Z " fill="#5B1CD3" transform="translate(616,608)"/>
<path d="M0 0 C3 4 3 4 3.07421875 6.140625 C2.71614583 8.09375 2.35807292 10.046875 2 12 C1.01 11.34 0.02 10.68 -1 10 C-0.67 6.7 -0.34 3.4 0 0 Z " fill="#7B1EE8" transform="translate(658,437)"/>
<path d="M0 0 C0.99 0.33 1.98 0.66 3 1 C1.8125 3.5 1.8125 3.5 0 6 C-2.6875 6.3125 -2.6875 6.3125 -5 6 C-3.35 4.02 -1.7 2.04 0 0 Z " fill="#631DEB" transform="translate(695,562)"/>
<path d="M0 0 C0.33 0 0.66 0 1 0 C0.25 7.625 0.25 7.625 -2 11 C-2 8.03 -2 5.06 -2 2 C-1.34 2 -0.68 2 0 2 C0 1.34 0 0.68 0 0 Z " fill="#9922FE" transform="translate(658,445)"/>
<path d="M0 0 C2.44897847 3.67346771 2.31537716 5.66356399 2 10 C1.34 10.66 0.68 11.32 0 12 C-0.76173392 7.6835078 -1.16063604 4.25566547 0 0 Z " fill="#A120FC" transform="translate(659,409)"/>
<path d="M0 0 C0.66 0.33 1.32 0.66 2 1 C1.67 3.31 1.34 5.62 1 8 C-0.32 8.33 -1.64 8.66 -3 9 C-2.30058404 5.85262818 -1.23921302 2.97411124 0 0 Z " fill="#5D1EE2" transform="translate(734,504)"/>
<path d="M0 0 C0.33 0.66 0.66 1.32 1 2 C1.99 2 2.98 2 4 2 C3.34099246 5.07536854 2.46132217 7.07735566 1 10 C0.67 6.7 0.34 3.4 0 0 Z " fill="#8C1FEE" transform="translate(657,404)"/>
<path d="M0 0 C0.33 0 0.66 0 1 0 C2.23076923 6.4 2.23076923 6.4 1.0625 9.4375 C0.711875 9.953125 0.36125 10.46875 0 11 C-0.33 11 -0.66 11 -1 11 C-1.14285714 3.57142857 -1.14285714 3.57142857 0 0 Z " fill="#7A25FC" transform="translate(749,458)"/>
<path d="M0 0 C0 3.10551666 -0.5393715 4.35261084 -2 7 C-2.66 7 -3.32 7 -4 7 C-4 5.68 -4 4.36 -4 3 C-3.34 3 -2.68 3 -2 3 C-2 2.34 -2 1.68 -2 1 C-1.34 0.67 -0.68 0.34 0 0 Z " fill="#6B1EDD" transform="translate(369,744)"/>
<path d="M0 0 C0.99 1.32 1.98 2.64 3 4 C1.35 4.66 -0.3 5.32 -2 6 C-2 3 -2 3 0 0 Z " fill="#7519F2" transform="translate(643,480)"/>
<path d="M0 0 C2.8992226 0.46761655 3.86675182 0.86675182 6 3 C4.02 3.33 2.04 3.66 0 4 C-0.33 3.01 -0.66 2.02 -1 1 C-0.67 0.67 -0.34 0.34 0 0 Z " fill="#DF2CFD" transform="translate(560,312)"/>
<path d="M0 0 C1.32 0 2.64 0 4 0 C4.33 0.66 4.66 1.32 5 2 C5.99 2.33 6.98 2.66 8 3 C7.01 3.66 6.02 4.32 5 5 C2 4 2 4 0.8125 1.9375 C0.544375 1.298125 0.27625 0.65875 0 0 Z " fill="#C321FE" transform="translate(683,274)"/>
</svg>
